<svg width="69" height="50" viewBox="0 0 69 50" fill="none" xmlns="http://www.w3.org/2000/svg">
<path d="M60.4478 6.75106C52.0498 0.466712 44.0037 0.643333 44.0037 0.643333L43.1814 1.58287C53.1653 4.57811 57.8051 8.98265 57.8051 8.98265C43.5207 1.11823 25.3265 1.17466 10.4691 8.98265C10.4691 8.98265 15.2847 4.34286 25.8564 1.34762L25.2693 0.642599C25.2693 0.642599 17.2818 0.466712 8.82523 6.75033C8.82523 6.75033 0.36792 21.961 0.36792 40.6961C0.36792 40.6961 5.3016 49.1534 18.2807 49.5645C18.2807 49.5645 20.4537 46.9804 22.2155 44.7489C14.7571 42.5173 11.9377 37.8775 11.9377 37.8775C16.6237 40.8097 21.3617 42.6448 27.2664 43.8093C36.8729 45.7866 48.8223 43.7536 57.7472 37.8775C57.7472 37.8775 54.8106 42.6345 47.1169 44.8075C48.8787 46.9804 50.993 49.5059 50.993 49.5059C63.9722 49.0948 68.9051 40.6375 68.9051 40.6968C68.9044 21.9618 60.4478 6.75106 60.4478 6.75106ZM23.6834 35.2348C20.3943 35.2348 17.6929 32.3568 17.6929 28.7745C17.9333 20.1948 29.4936 20.2212 29.6739 28.7745C29.6739 32.3568 27.0304 35.2348 23.6834 35.2348ZM45.1191 35.2348C41.83 35.2348 39.1286 32.3568 39.1286 28.7745C39.3925 20.2117 50.8084 20.208 51.1096 28.7745C51.1096 32.3568 48.4668 35.2348 45.1191 35.2348Z" fill="white"/>
</svg>
