<svg width="63" height="63" viewBox="0 0 63 63" fill="none" xmlns="http://www.w3.org/2000/svg">
<path d="M43.0436 0.589935H19.6834C14.5205 0.589935 9.56903 2.6409 5.91829 6.29164C2.26755 9.94238 0.216583 14.8938 0.216583 20.0568V43.417C0.216583 48.5799 2.26755 53.5314 5.91829 57.1821C9.56903 60.8329 14.5205 62.8838 19.6834 62.8838H43.0436C48.2066 62.8838 53.158 60.8329 56.8088 57.1821C60.4595 53.5314 62.5105 48.5799 62.5105 43.417V20.0568C62.5105 14.8938 60.4595 9.94238 56.8088 6.29164C53.158 2.6409 48.2066 0.589935 43.0436 0.589935ZM56.6704 43.417C56.6704 50.9312 50.5578 57.0438 43.0436 57.0438H19.6834C12.1692 57.0438 6.05663 50.9312 6.05663 43.417V20.0568C6.05663 12.5426 12.1692 6.42999 19.6834 6.42999H43.0436C50.5578 6.42999 56.6704 12.5426 56.6704 20.0568V43.417Z" fill="white"/>
<path d="M31.3635 16.1634C27.2332 16.1634 23.272 17.8042 20.3514 20.7248C17.4308 23.6454 15.7901 27.6065 15.7901 31.7369C15.7901 35.8672 17.4308 39.8284 20.3514 42.749C23.272 45.6696 27.2332 47.3103 31.3635 47.3103C35.4939 47.3103 39.455 45.6696 42.3756 42.749C45.2962 39.8284 46.937 35.8672 46.937 31.7369C46.937 27.6065 45.2962 23.6454 42.3756 20.7248C39.455 17.8042 35.4939 16.1634 31.3635 16.1634ZM31.3635 41.4703C28.783 41.4672 26.3091 40.4407 24.4844 38.616C22.6597 36.7913 21.6332 34.3174 21.6301 31.7369C21.6301 26.3679 25.9985 22.0035 31.3635 22.0035C36.7286 22.0035 41.0969 26.3679 41.0969 31.7369C41.0969 37.1019 36.7286 41.4703 31.3635 41.4703Z" fill="white"/>
<path d="M48.1053 17.0704C49.2514 17.0704 50.1805 16.1414 50.1805 14.9953C50.1805 13.8492 49.2514 12.9201 48.1053 12.9201C46.9592 12.9201 46.0302 13.8492 46.0302 14.9953C46.0302 16.1414 46.9592 17.0704 48.1053 17.0704Z" fill="white"/>
</svg>
