<svg width="56" height="55" viewBox="0 0 56 55" fill="none" xmlns="http://www.w3.org/2000/svg">
<path d="M0.97435 6.35541C0.97435 4.52937 1.58509 3.02292 2.80652 1.83605C4.02795 0.649128 5.61587 0.0556946 7.57017 0.0556946C9.48961 0.0556946 11.0426 0.639979 12.2291 1.80866C13.4506 3.01382 14.0613 4.58415 14.0613 6.51975C14.0613 8.27271 13.468 9.73348 12.2815 10.9022C11.06 12.1073 9.45469 12.7099 7.46548 12.7099H7.41313C5.49369 12.7099 3.94074 12.1073 2.75418 10.9022C1.56761 9.697 0.97435 8.1814 0.97435 6.35541ZM1.65487 54.288V17.6949H13.2761V54.288H1.65487ZM19.7149 54.288H31.3361V33.855C31.3361 32.5768 31.4757 31.5908 31.7549 30.8969C32.2434 29.6552 32.985 28.6052 33.9796 27.7471C34.9743 26.8888 36.2219 26.4597 37.7225 26.4597C41.6312 26.4597 43.5855 29.217 43.5855 34.7315V54.288H55.2067V33.3072C55.2067 27.9022 53.9852 23.8029 51.5423 21.0091C49.0994 18.2153 45.8713 16.8184 41.858 16.8184C37.3561 16.8184 33.8488 18.8453 31.3361 22.899V23.0086H31.2837L31.3361 22.899V17.6949H19.7149C19.7846 18.8635 19.8196 22.4973 19.8196 28.5961C19.8196 34.695 19.7846 43.2589 19.7149 54.288Z" fill="white"/>
</svg>
