<svg width="72" height="53" viewBox="0 0 72 53" fill="none" xmlns="http://www.w3.org/2000/svg">
<path d="M71.0872 7.11028C68.4407 8.15403 65.6417 8.8477 62.7765 9.16993C65.7959 7.55015 68.0535 4.98528 69.1217 1.96116C66.2943 3.47741 63.201 4.54517 59.9755 5.11823C57.9978 3.20879 55.4308 1.88131 52.6079 1.30825C49.785 0.735187 46.8368 0.943035 44.1463 1.90479C41.4557 2.86654 39.1473 4.53775 37.5208 6.70128C35.8942 8.8648 35.0249 11.4206 35.0257 14.0367C35.0257 15.0705 35.1224 16.0646 35.3599 17.0109C29.6218 16.7565 24.0078 15.4099 18.8848 13.0591C13.7618 10.7083 9.2452 7.40617 5.63028 3.36872C3.77826 6.23894 3.20569 9.63955 4.02918 12.8781C4.85266 16.1167 7.01028 18.9496 10.0627 20.8002C7.77945 20.7448 5.54442 20.1939 3.546 19.1938V19.337C3.54982 22.3486 4.701 25.2672 6.80573 27.6012C8.91047 29.9353 11.8402 31.5425 15.1019 32.1521C13.868 32.4462 12.5963 32.5906 11.3203 32.5815C10.4038 32.5963 9.48833 32.5216 8.58961 32.3589C9.52156 34.9475 11.318 37.2111 13.7317 38.8382C16.1453 40.4654 19.0575 41.3759 22.0671 41.4444C16.9616 45.0549 10.665 47.0135 4.1836 47.007C3.00074 47.007 1.86626 46.9593 0.731781 46.8281C7.32709 50.6712 15.0125 52.7042 22.8586 52.681C49.4002 52.681 63.911 32.8002 63.911 15.5676C63.911 14.991 63.889 14.4344 63.8582 13.8817C66.703 12.0407 69.1528 9.746 71.0872 7.11028Z" fill="white"/>
</svg>
