<svg width="81" height="78" viewBox="0 0 81 78" fill="none" xmlns="http://www.w3.org/2000/svg">
<rect x="0.461578" y="0.852051" width="80.1043" height="76.2898" rx="9.15478" fill="white"/>
<g clip-path="url(#clip0_757_1998)">
<path d="M63.7823 58.1398C63.7867 58.9737 63.6268 59.8003 63.3118 60.5724C62.9967 61.3445 62.5326 62.047 61.9461 62.6397C61.3596 63.2325 60.662 63.7039 59.8933 64.027C59.1245 64.3502 58.2997 64.5188 57.4658 64.5232C57.2045 64.5252 56.9435 64.5105 56.6841 64.4789C55.112 64.2464 53.6791 63.4471 52.6555 62.2314C51.6318 61.0157 51.0881 59.4677 51.1266 57.8789V20.0834C51.089 18.4932 51.6343 16.9442 52.66 15.7284C53.6856 14.5127 55.1206 13.7141 56.6944 13.4834C57.5873 13.3777 58.4924 13.4631 59.3498 13.7339C60.2072 14.0046 60.9971 14.4546 61.6674 15.0539C62.3376 15.6533 62.8727 16.3882 63.2373 17.2101C63.6018 18.032 63.7874 18.922 63.7818 19.8211L63.7823 58.1398Z" fill="#F9AB00"/>
<path d="M23.9556 51.8763C25.2073 51.8763 26.4309 52.2475 27.4717 52.9429C28.5124 53.6383 29.3236 54.6267 29.8026 55.7832C30.2816 56.9396 30.407 58.2121 30.1628 59.4398C29.9186 60.6675 29.3158 61.7952 28.4307 62.6803C27.5456 63.5654 26.4179 64.1681 25.1902 64.4123C23.9626 64.6565 22.6901 64.5312 21.5336 64.0522C20.3772 63.5732 19.3888 62.762 18.6933 61.7212C17.9979 60.6805 17.6267 59.4568 17.6267 58.2051C17.6267 56.5266 18.2935 54.9169 19.4804 53.73C20.6673 52.5431 22.277 51.8763 23.9556 51.8763ZM40.6069 32.6943C38.9176 32.7869 37.3307 33.5332 36.182 34.7752C35.0333 36.0173 34.4131 37.6576 34.4525 39.3489V56.3475C34.4525 60.9613 36.483 63.7611 39.4573 64.3556C40.2732 64.5212 41.1138 64.5243 41.9309 64.3649C42.7481 64.2055 43.5258 63.8867 44.2197 63.4266C44.9136 62.9665 45.5101 62.3742 45.975 61.6836C46.4399 60.9929 46.7642 60.2174 46.9293 59.4014C47.0155 58.9811 47.0578 58.5531 47.0556 58.1241V39.057C47.0572 38.2231 46.8946 37.3969 46.577 36.6258C46.2594 35.8547 45.793 35.1537 45.2044 34.5629C44.6158 33.972 43.9167 33.5029 43.1468 33.1823C42.3769 32.8617 41.5514 32.6959 40.7174 32.6943H40.6069Z" fill="#E37400"/>
</g>
<defs>
<clipPath id="clip0_757_1998">
<rect width="46.1553" height="51.0943" fill="white" transform="translate(17.6267 13.4399)"/>
</clipPath>
</defs>
</svg>
