<svg width="70" height="77" viewBox="0 0 70 77" fill="none" xmlns="http://www.w3.org/2000/svg">
<path d="M66.1026 54.2606C62.7633 59.9004 55.7411 64.7531 47.5099 67.7579C47.3093 69.6773 47.2131 72.8203 47.8653 76.9992C47.8653 76.9992 38.2535 77.2048 33.0208 70.8741C29.4362 71.1203 25.8796 70.9628 22.5173 70.3297C16.3415 72.7835 9.6437 72.0205 2.07264 65.287C2.07264 65.287 4.77689 64.947 8.56911 63.347C7.0352 61.7927 5.73979 60.0199 4.72498 58.0861C-6.88696 36.0882 6.53967 22.6775 6.68744 22.5318C-4.67877 11.0586 9.1334 0 9.1334 0C9.1334 0 8.99485 4.89159 12.9905 8.09571C16.9862 11.2998 15.6763 15.949 15.6763 15.949C15.6763 15.949 20.5323 13.4341 25.1827 15.7773C29.833 18.1205 34.4047 17.3358 34.4047 17.3358C34.4047 17.3358 33.1388 23.2014 28.3348 26.5089C21.9593 30.8976 14.0576 26.4231 14.0576 26.4231C7.50123 40.6812 20.6717 41.2042 36.3417 36.4261C39.6039 35.4316 42.9733 34.2068 46.2963 32.8313C57.3896 28.2349 65.4496 30.6443 68.4707 36.6091C70.7061 41.0162 70.1862 47.3645 66.1026 54.2606Z" fill="#fff"/>
</svg>
