<svg width="81" height="78" viewBox="0 0 81 78" fill="none" xmlns="http://www.w3.org/2000/svg">
<rect x="0.461586" y="0.852051" width="80.1043" height="76.2898" rx="9.15478" fill="white"/>
<g clip-path="url(#clip0_757_2062)">
<path d="M48.2498 39.1499C48.2508 41.2412 47.8735 43.3155 47.1362 45.2725C45.1785 46.0097 43.1037 46.3876 41.0118 46.3879H40.9873C38.8332 46.3852 36.7692 45.9914 34.8647 45.2734C34.1269 43.3162 33.7493 41.2416 33.75 39.1499V39.1245C33.749 37.0336 34.1259 34.9597 34.8624 33.0028C36.82 32.2642 38.8952 31.8863 40.9875 31.8872H41.012C43.1041 31.8862 45.179 32.2641 47.1364 33.0026C47.8738 34.9593 48.2511 37.0333 48.25 39.1243V39.1497L48.2498 39.1499ZM69.5972 34.3039H52.6693L64.6384 22.334C63.699 21.0143 62.651 19.7753 61.5055 18.6299V18.629C60.3599 17.4848 59.1213 16.4378 57.8023 15.4988L45.8324 27.4688V10.5409C44.2404 10.2731 42.6289 10.1381 41.0145 10.1372L40.9846 10.1372C39.3425 10.1381 37.7341 10.2777 36.1667 10.5409V27.4688L24.1968 15.4988C22.8776 16.4376 21.6395 17.4853 20.4954 18.631L20.4891 18.6356C19.3455 19.7795 18.299 21.0166 17.3605 22.334L29.3314 34.3039H12.4037C12.4037 34.3039 12 37.4833 12 39.1272V39.1472C12 40.7911 12.1393 42.4022 12.4037 43.9705H29.3316L17.3607 55.9404C19.2438 58.5831 21.5541 60.8934 24.1968 62.7765L36.1667 50.8056V67.7344C37.757 68.0009 39.3665 68.1356 40.9789 68.1372H41.0199C42.6324 68.1357 44.2419 68.001 45.8321 67.7344V50.8056L57.8032 62.7765C59.1219 61.8372 60.3603 60.7899 61.5055 59.6454L61.5082 59.6427C62.6521 58.4973 63.6991 57.2589 64.6384 55.9404L52.6675 43.9705H69.5972C69.8607 42.4049 69.9982 40.7986 70 39.1583V39.1161C69.9982 37.4758 69.8607 35.8695 69.5972 34.3039Z" fill="#FF4A00"/>
</g>
<defs>
<clipPath id="clip0_757_2062">
<rect width="58" height="58" fill="white" transform="translate(12 10.1372)"/>
</clipPath>
</defs>
</svg>
