<svg width="35" height="39" viewBox="0 0 35 39" fill="none" xmlns="http://www.w3.org/2000/svg">
<path d="M28.8534 27.9585C23.4092 31.6559 15.8678 30.2327 12.0847 24.8485C8.30212 19.4635 9.51364 11.8751 14.8289 7.99411C14.995 7.87291 15.1165 7.7002 15.1746 7.50279C15.2327 7.30537 15.2241 7.09427 15.1502 6.90224C15.0765 6.71017 14.9415 6.54785 14.7662 6.44042C14.5909 6.333 14.3852 6.28648 14.1808 6.30809C11.502 6.59429 8.94003 7.55826 6.73588 9.10929C-0.422649 14.1507 -2.11359 24.1347 2.92126 31.3027C7.95621 38.4705 17.9115 40.2509 25.07 35.2086C27.2692 33.66 29.0482 31.5617 30.2189 29.1391C30.3084 28.9538 30.3342 28.7441 30.2924 28.5425C30.2505 28.341 30.1433 28.159 29.9875 28.0248C29.8321 27.8903 29.6367 27.8109 29.4317 27.7989C29.2266 27.7869 29.0233 27.843 28.8534 27.9585ZM26.1451 4.14744C26.1452 4.24189 26.1266 4.33542 26.0905 4.42268C26.0544 4.50993 26.0015 4.58921 25.9348 4.65596C25.8681 4.72271 25.7888 4.77564 25.7017 4.8117C25.6145 4.84776 25.5211 4.86626 25.4268 4.86613H23.6401V6.65577C23.64 6.8465 23.5643 7.02938 23.4295 7.16421C23.2948 7.29904 23.1122 7.37479 22.9217 7.37479C22.8273 7.37489 22.7339 7.35636 22.6467 7.32027C22.5595 7.28417 22.4803 7.23122 22.4136 7.16444C22.3469 7.09765 22.294 7.01835 22.2579 6.93107C22.2218 6.84379 22.2032 6.75024 22.2033 6.65577V4.86602H20.4162C20.2258 4.86599 20.0433 4.79026 19.9087 4.65549C19.7742 4.52071 19.6986 4.33792 19.6986 4.14734C19.6986 3.94827 19.7783 3.7686 19.9087 3.6385C20.039 3.5084 20.2184 3.42777 20.4162 3.42777H22.2033V1.63857C22.2033 1.54413 22.2219 1.45061 22.258 1.36336C22.2941 1.27611 22.3471 1.19683 22.4138 1.13007C22.4805 1.0633 22.5597 1.01034 22.6468 0.974223C22.734 0.938103 22.8274 0.919527 22.9217 0.919556C23.016 0.919499 23.1094 0.938055 23.1966 0.974164C23.2837 1.01027 23.3629 1.06323 23.4297 1.13C23.4964 1.19678 23.5493 1.27606 23.5854 1.36332C23.6215 1.45059 23.6401 1.54412 23.6401 1.63857V3.42788H25.4268C25.5211 3.42786 25.6146 3.44645 25.7017 3.4826C25.7889 3.51876 25.8681 3.57176 25.9349 3.63859C26.0016 3.70541 26.0545 3.78475 26.0906 3.87206C26.1266 3.95938 26.1452 4.05295 26.1451 4.14744Z" fill="white"/>
<path d="M23.5672 15.4765C23.5672 15.6748 23.4867 15.8549 23.3564 15.9853C23.2897 16.0521 23.2106 16.105 23.1235 16.141C23.0364 16.177 22.9431 16.1953 22.8489 16.1951H21.0624V17.985C21.0624 18.382 20.7404 18.7036 20.3435 18.7036C20.2491 18.7039 20.1557 18.6854 20.0686 18.6493C19.9814 18.6132 19.9023 18.5602 19.8357 18.4932C19.7691 18.4265 19.7162 18.3473 19.6802 18.2601C19.6442 18.1729 19.6256 18.0794 19.6257 17.985V16.1951H17.8385C17.7442 16.1952 17.6509 16.1766 17.5638 16.1405C17.4767 16.1044 17.3976 16.0515 17.3309 15.9848C17.2642 15.918 17.2114 15.8388 17.1754 15.7516C17.1393 15.6644 17.1208 15.5709 17.1209 15.4765C17.1206 15.382 17.1391 15.2885 17.1751 15.2012C17.2112 15.1139 17.2641 15.0346 17.3309 14.9679C17.3974 14.901 17.4765 14.8479 17.5636 14.8117C17.6508 14.7755 17.7442 14.757 17.8385 14.7572H19.6257V12.9678C19.6257 12.8256 19.6678 12.6866 19.7467 12.5683C19.8256 12.45 19.9377 12.3578 20.069 12.3034C20.2002 12.249 20.3446 12.2347 20.4839 12.2625C20.6232 12.2902 20.7512 12.3587 20.8516 12.4593C20.9185 12.526 20.9716 12.6052 21.0078 12.6925C21.044 12.7798 21.0626 12.8734 21.0625 12.9678V14.7572H22.849C23.0394 14.7573 23.2221 14.8331 23.3568 14.968C23.4914 15.1029 23.5671 15.2858 23.5672 15.4765ZM34.1521 12.2489C34.1521 12.4475 34.0716 12.6275 33.9413 12.7575C33.8747 12.8243 33.7956 12.8772 33.7085 12.9134C33.6214 12.9495 33.528 12.968 33.4338 12.968H31.6464V14.7576C31.6463 14.9483 31.5706 15.1311 31.436 15.2658C31.3013 15.4006 31.1187 15.4763 30.9283 15.4763C30.8339 15.4766 30.7405 15.4581 30.6533 15.422C30.5662 15.3859 30.487 15.3328 30.4205 15.2658C30.3537 15.1992 30.3006 15.12 30.2645 15.0328C30.2283 14.9456 30.2098 14.852 30.2099 14.7576V12.968H28.4232C28.2811 12.9681 28.1422 12.926 28.024 12.8471C27.9058 12.7681 27.8136 12.6558 27.7592 12.5243C27.7048 12.3929 27.6906 12.2482 27.7183 12.1087C27.746 11.9692 27.8145 11.841 27.915 11.7404C27.9817 11.6736 28.0609 11.6205 28.1481 11.5844C28.2353 11.5482 28.3288 11.5296 28.4232 11.5297H30.2099V9.74072C30.2099 9.64627 30.2285 9.55275 30.2646 9.46549C30.3007 9.37823 30.3536 9.29895 30.4203 9.23216C30.487 9.16538 30.5662 9.11241 30.6533 9.07627C30.7405 9.04013 30.8339 9.02154 30.9282 9.02154C31.0225 9.02155 31.1159 9.04016 31.2031 9.07631C31.2902 9.11246 31.3694 9.16545 31.4361 9.23224C31.5028 9.29903 31.5557 9.37832 31.5918 9.46559C31.6279 9.55285 31.6464 9.64638 31.6464 9.74083V11.5298H33.4338C33.5281 11.5298 33.6215 11.5484 33.7086 11.5845C33.7958 11.6207 33.875 11.6736 33.9417 11.7404C34.0084 11.8072 34.0613 11.8865 34.0974 11.9737C34.1335 12.061 34.1521 12.1545 34.1521 12.2489Z" fill="white"/>
</svg>
