<svg width="46" height="45" viewBox="0 0 46 45" fill="none" xmlns="http://www.w3.org/2000/svg">
<path d="M20.7812 2.5C20.7812 2.5 20.7812 0 23.2812 0C25.7812 0 25.7812 2.5 25.7812 2.5V5C25.7812 5 25.7812 7.5 23.2812 7.5C20.7812 7.5 20.7812 5 20.7812 5V2.5ZM43.2812 20C43.2812 20 45.7812 20 45.7812 22.5C45.7812 25 43.2812 25 43.2812 25H40.7812C40.7812 25 38.2812 25 38.2812 22.5C38.2812 20 40.7812 20 40.7812 20H43.2812ZM5.78125 20C5.78125 20 8.28125 20 8.28125 22.5C8.28125 25 5.78125 25 5.78125 25H3.28125C3.28125 25 0.78125 25 0.78125 22.5C0.78125 20 3.28125 20 3.28125 20H5.78125ZM12.1825 9.1175C12.1825 9.1175 13.95 10.885 12.1825 12.6525C10.415 14.42 8.6475 12.6525 8.6475 12.6525L6.87875 10.885C6.87875 10.885 5.11125 9.1175 6.87875 7.34875C8.6475 5.58125 10.415 7.34875 10.415 7.34875L12.1825 9.1175ZM38.4325 35.3663C38.4325 35.3663 40.2 37.1337 38.4325 38.9012C36.665 40.6687 34.8975 38.9012 34.8975 38.9012L33.13 37.1337C33.13 37.1337 31.3625 35.3663 33.13 33.5987C34.8975 31.8312 36.665 33.5987 36.665 33.5987L38.4325 35.3663ZM37.9163 12.6512C37.9163 12.6512 36.1488 14.4188 34.3812 12.6512C32.6137 10.8838 34.3812 9.11625 34.3812 9.11625L36.1488 7.34875C36.1488 7.34875 37.9163 5.58125 39.6838 7.34875C41.4513 9.11625 39.6838 10.8838 39.6838 10.8838L37.9163 12.6512ZM11.6663 38.9012C11.6663 38.9012 9.89875 40.6687 8.13125 38.9012C6.36375 37.1337 8.13125 35.3663 8.13125 35.3663L9.89875 33.5987C9.89875 33.5987 11.6662 31.8312 13.4338 33.5987C15.2013 35.3663 13.4338 37.1337 13.4338 37.1337L11.6663 38.9012ZM20.7812 40C20.7812 40 20.7812 37.5 23.2812 37.5C25.7812 37.5 25.7812 40 25.7812 40V42.5C25.7812 42.5 25.7812 45 23.2812 45C20.7812 45 20.7812 42.5 20.7812 42.5V40ZM35.7812 22.5C35.7812 15.5963 30.1838 10 23.2812 10C16.3775 10 10.7812 15.5963 10.7812 22.5C10.7812 29.4025 16.3775 35 23.2812 35C30.1838 35 35.7812 29.4025 35.7812 22.5Z" fill="#FFAC33"/>
</svg>
