<svg width="777" height="139" viewBox="0 0 777 139" fill="none" xmlns="http://www.w3.org/2000/svg">
<path d="M113.709 52.9099C114.245 46.3874 115.184 39.9039 116.52 33.4973C116.905 31.9813 117.162 30.4353 117.287 28.876C117.283 26.9858 116.531 25.1743 115.195 23.8377C113.86 22.5011 112.051 21.7484 110.162 21.7442C108.935 21.8354 107.716 22.0279 106.52 22.3199C100.187 23.6179 93.7879 24.5681 87.3511 25.1662C81.3132 25.7418 75.4505 26.0457 69.7799 26.0457C64.9875 26.0457 60.0513 25.8378 55.1314 25.454C50.2115 25.0703 45.5471 24.4946 40.6109 23.711C39.5247 23.5351 37.9912 23.2153 36.3458 22.8955C34.0282 22.3433 31.6739 21.9585 29.3012 21.7442C27.42 21.7363 25.6118 22.4718 24.2694 23.791C23.606 24.451 23.0796 25.2358 22.7205 26.1003C22.3613 26.9648 22.1765 27.8918 22.1767 28.8281C22.1767 32.4899 23.4866 37.3671 24.2054 41.2528C24.477 42.7079 24.7166 44.1951 24.9243 45.858C25.4515 49.92 25.8188 53.8535 26.0584 57.5472C26.3141 61.6729 26.4418 65.5853 26.4418 69.2846C26.4418 74.1614 26.2501 79.0869 25.8508 84.0279C25.4259 90.1576 24.5988 96.2524 23.3748 102.273C22.7399 104.753 22.323 107.284 22.1288 109.837C22.1223 110.77 22.2995 111.695 22.6504 112.559C23.0012 113.424 23.5188 114.21 24.1735 114.874C24.8371 115.563 25.6339 116.11 26.5155 116.481C27.397 116.852 28.3449 117.04 29.3012 117.033C31.1609 116.87 33.0041 116.554 34.8123 116.089C36.1222 115.801 37.4161 115.53 39.0774 115.242C44.1998 114.378 49.2903 113.738 54.3488 113.323C59.4763 112.891 64.6361 112.683 69.7799 112.683C74.9233 112.683 79.8755 112.891 84.9392 113.307C90.0029 113.722 94.9392 114.346 100.019 115.178C101.009 115.338 102.431 115.642 103.98 115.961C106.039 116.443 108.125 116.801 110.226 117.033C112.113 117.033 113.923 116.283 115.258 114.949C116.594 113.616 117.347 111.805 117.351 109.917C117.164 108.116 116.849 106.332 116.408 104.576C116.121 103.233 115.849 101.889 115.785 101.506C114.859 96.2287 114.188 90.904 113.693 85.5151C113.197 80.1262 113.006 74.7851 113.006 69.3802C113.006 63.9754 113.246 58.3629 113.725 52.9258M134.89 54.7489C134.454 59.5461 134.241 64.4233 134.252 69.3802C134.262 74.3376 134.464 79.1347 134.859 83.772C135.274 88.5692 135.891 93.281 136.711 97.9076C136.935 99.235 137.047 99.7467 137.175 100.37C137.936 103.517 138.396 106.73 138.549 109.965C138.527 117.487 135.527 124.694 130.206 130.006C124.885 135.318 117.677 138.3 110.162 138.3C106.63 138.07 103.124 137.535 99.6833 136.701C98.5015 136.445 97.4149 136.221 96.4884 136.077C92.2236 135.374 87.7668 134.83 83.1501 134.479C78.5334 134.127 74.2687 133.935 69.652 133.935C65.0353 133.935 60.4191 134.127 55.9622 134.495C51.5053 134.862 46.7771 135.438 42.432 136.093C41.7611 136.205 40.4831 136.493 39.2371 136.781C35.9647 137.617 32.6123 138.099 29.2373 138.22C25.5184 138.222 21.8359 137.488 18.4011 136.061C14.9663 134.634 11.8468 132.542 9.22167 129.905C3.90449 124.611 0.900257 117.424 0.867188 109.917C0.867188 104.72 2.4646 100.323 3.16747 95.3975C3.80643 91.3355 4.31761 87.0023 4.76489 82.4446C5.08437 78.2074 5.2601 73.8418 5.2601 69.3643C5.27948 62.4154 4.85797 55.4721 3.99812 48.5766C3.15149 41.9084 0.994982 35.9119 0.994982 28.876C0.991104 25.1482 1.72292 21.4563 3.14841 18.0124C4.5739 14.5685 6.66496 11.4404 9.30157 8.8077C11.925 6.17195 15.0416 4.07952 18.4733 2.65002C21.9049 1.22051 25.5843 0.481962 29.3012 0.476562C34.2053 0.476562 39.0614 2.07563 43.8856 2.77922C47.9112 3.40286 52.2082 3.91456 56.7448 4.26636C60.9407 4.60749 65.2696 4.77806 69.7317 4.77806C75.227 4.77806 80.4345 4.5382 85.3066 4.07446C89.5662 3.68003 93.8741 3.09371 98.2297 2.31549C102.149 1.36864 106.14 0.75349 110.162 0.476562C117.683 0.489247 124.891 3.4854 130.209 8.80857C135.527 14.1317 138.52 21.3479 138.532 28.876C138.443 31.9194 138.02 34.9438 137.27 37.8948C136.127 43.4529 135.327 49.0762 134.874 54.733L134.89 54.7489Z" fill="white"/>
<path d="M621.72 43.3803C617.956 40.6364 613.541 38.9356 608.911 38.4498C604.281 37.9641 599.608 38.7106 595.361 40.614C590.064 43.0526 585.615 47.0166 582.582 51.9993C581.514 53.7221 580.618 55.5427 579.899 57.436C577.707 63.2789 577.151 69.6106 578.301 75.7455C578.642 77.765 579.176 79.7463 579.899 81.662C580.618 83.5558 581.514 85.3764 582.582 87.0987C585.007 91.2102 588.449 94.6273 592.575 97.0216C596.701 99.4158 601.374 100.707 606.142 100.771C607.985 100.776 609.82 100.583 611.62 100.195C616.349 99.0739 620.721 96.7925 624.347 93.557C627.969 90.3216 630.735 86.2334 632.388 81.662C633.103 79.7497 633.642 77.7741 633.986 75.7614C634.361 73.7096 634.551 71.6271 634.546 69.5413C634.551 67.4653 634.361 65.3941 633.986 63.3526C633.642 61.3395 633.108 59.3638 632.388 57.452C631.665 55.5616 630.765 53.7462 629.688 52.0312C627.612 48.6804 624.899 45.7688 621.703 43.4603M541.481 0.493321C542.665 0.485993 543.841 0.715552 544.939 1.16858C546.038 1.62161 547.032 2.28901 547.868 3.13179C548.712 3.96886 549.384 4.96513 549.841 6.06299C550.297 7.16084 550.534 8.33854 550.534 9.52805C550.534 10.7176 550.297 11.8953 549.841 12.9931C549.384 14.091 548.712 15.0872 547.868 15.9243C547.028 16.7643 546.033 17.4306 544.939 17.8852C543.841 18.3398 542.665 18.5738 541.481 18.5738C540.292 18.5738 539.116 18.3398 538.022 17.8852C536.924 17.4306 535.929 16.7643 535.089 15.9243C534.249 15.0844 533.586 14.0872 533.13 12.9897C532.677 11.8922 532.445 10.716 532.445 9.52805C532.445 8.34018 532.677 7.1639 533.13 6.06643C533.586 4.96897 534.249 3.97176 535.089 3.13179C535.929 2.29117 536.924 1.62518 538.022 1.1723C539.116 0.71943 540.292 0.488655 541.481 0.493321ZM548.923 107.951C548.919 109.427 548.475 110.868 547.653 112.094C546.834 113.32 545.667 114.276 544.306 114.843C543.41 115.22 542.45 115.416 541.481 115.418C540.507 115.416 539.547 115.22 538.651 114.843C537.299 114.271 536.144 113.312 535.33 112.086C534.516 110.86 534.086 109.422 534.086 107.951V31.0195C534.09 29.543 534.529 28.1007 535.352 26.8744C536.17 25.648 537.338 24.6923 538.699 24.1275C539.594 23.7501 540.555 23.5544 541.528 23.5519C542.497 23.5544 543.462 23.7501 544.354 24.1275C545.706 24.7014 546.86 25.6607 547.674 26.8861C548.488 28.1115 548.919 29.5489 548.923 31.0195V107.951ZM518.43 63.4486V105.84C518.529 107.417 518.374 108.999 517.965 110.525C517.616 111.555 517.017 112.483 516.225 113.228C515.531 113.914 514.713 114.457 513.813 114.827C512.917 115.206 511.952 115.402 510.979 115.402C510.001 115.402 509.041 115.206 508.14 114.827C507.24 114.461 506.418 113.917 505.728 113.228C503.446 110.941 503.558 108.702 503.558 105.904V61.498C503.571 59.475 503.351 57.4576 502.903 55.4854C502.903 55.2455 502.791 55.0056 502.727 54.7816C501.378 49.7244 498.217 45.3411 493.845 42.4689C490.176 40.2006 485.968 38.9582 481.657 38.871H480.808C472.009 38.871 464.037 43.1885 460.316 51.3916C459.51 53.1553 458.937 55.0146 458.606 56.9244C458.274 59.0395 458.145 61.1814 458.222 63.3207V107.775C458.235 108.762 458.067 109.743 457.727 110.669C457.357 111.654 456.775 112.544 456.017 113.276C455.319 113.962 454.497 114.505 453.588 114.875C452.688 115.254 451.723 115.449 450.745 115.45C449.763 115.448 448.794 115.252 447.886 114.875C446.981 114.509 446.154 113.965 445.461 113.276C444.664 112.504 444.065 111.556 443.704 110.509C443.402 109.569 443.26 108.585 443.286 107.599V7.94497C443.29 6.96771 443.488 6.00075 443.863 5.09865C444.229 4.19475 444.772 3.37362 445.461 2.68404C446.15 1.99792 446.968 1.45459 447.873 1.08498C448.773 0.710919 449.738 0.520645 450.715 0.525302C451.689 0.522346 452.658 0.712555 453.558 1.08498C454.932 1.63154 456.112 2.58286 456.935 3.81333C457.762 5.04382 458.192 6.49558 458.175 7.97697V31.0195L459.467 30.156C461.509 28.8101 463.684 27.6743 465.953 26.766C468.245 25.8145 470.627 25.0966 473.064 24.6233C473.667 24.5113 474.262 24.4154 474.869 24.3354C475.442 24.2555 476.083 24.1915 476.768 24.1275L478.702 23.9836H481.786C487.747 24.101 493.613 25.5544 498.941 28.2371C503.713 30.724 507.865 34.255 511.086 38.5681C514.308 42.8812 516.517 47.8655 517.551 53.1506C518.18 56.5462 518.473 59.9957 518.43 63.4486ZM343.56 33.3382V77.8723C343.549 79.8195 343.41 81.7641 343.144 83.6927C343.049 84.3164 342.953 84.956 342.841 85.5796C342.729 86.2192 342.601 86.8269 342.474 87.3709C342.33 87.9782 342.154 88.6019 341.994 89.2096C341.819 89.8173 341.627 90.425 341.419 91.0168C339.84 95.5955 337.357 99.8095 334.119 103.409C332.183 105.576 329.958 107.465 327.506 109.022C324.944 110.803 322.142 112.208 319.183 113.196C318.512 113.436 317.921 113.627 317.378 113.771L315.573 114.251C314.982 114.395 314.343 114.523 313.72 114.651C309.232 115.462 304.645 115.565 300.126 114.955C299.519 114.955 298.896 114.779 298.305 114.667L296.468 114.283C295.829 114.134 295.222 113.974 294.647 113.803C294.12 113.659 293.513 113.451 292.858 113.228C292.347 113.052 291.755 112.828 291.133 112.572C283.823 109.694 277.687 104.446 273.705 97.6685C273.353 97.0772 273.05 96.5332 272.81 96.0697C272.475 95.4302 272.219 94.9185 272.027 94.4706C271.82 94.0226 271.596 93.511 271.357 92.8714L271.277 92.6956C271.021 92.072 270.798 91.4961 270.622 90.9685C270.414 90.3768 270.222 89.7695 270.046 89.1777C269.871 88.5859 269.695 87.8985 269.568 87.3709L269.376 86.3954L269.2 85.5478C268.721 83.0118 268.48 80.4371 268.481 77.8563V31.931C268.459 30.947 268.589 29.9654 268.865 29.0207C269.183 27.9703 269.747 27.011 270.51 26.2223C271.197 25.5305 272.017 24.9864 272.922 24.6233C273.828 24.2457 274.8 24.0501 275.781 24.0476C277.264 24.0112 278.722 24.4237 279.967 25.2309C280.883 25.9136 281.642 26.7849 282.193 27.7862C282.744 28.7876 283.074 29.8956 283.161 31.0355C283.258 31.8634 283.3 32.6967 283.289 33.5301V78.592C283.345 80.363 283.57 82.1246 283.96 83.853C284.04 84.2367 284.152 84.6041 284.248 84.9241C284.344 85.276 284.456 85.6438 284.583 85.9793C284.695 86.3312 284.839 86.699 284.982 87.0509C285.094 87.3386 285.254 87.7064 285.446 88.1221C285.637 88.5381 285.781 88.8258 285.893 89.0498L286.34 89.8492L286.771 90.5529L286.979 90.8566C287.187 91.1447 287.379 91.4483 287.586 91.7042L287.922 92.1521L288.225 92.5359C290.022 94.7186 292.238 96.5185 294.743 97.8287C299.338 100.131 304.534 100.953 309.615 100.179C310.782 100.029 311.935 99.7884 313.065 99.4598C313.417 99.3637 313.784 99.2517 314.135 99.1238L315.174 98.7401L316.18 98.3085L317.171 97.8128L318.113 97.2848C320.922 95.6244 323.307 93.3352 325.084 90.5968C326.86 87.8589 327.979 84.7458 328.352 81.5022C328.416 81.0758 328.464 80.6921 328.496 80.3509L328.576 79.3435C328.576 78.7996 328.576 78.3521 328.576 77.7444V31.6592C328.557 30.602 328.752 29.5519 329.151 28.573C329.517 27.6627 330.061 26.8353 330.753 26.1403C331.444 25.4452 332.269 24.8967 333.177 24.5273C334.077 24.1498 335.044 23.9542 336.02 23.9516C336.712 23.9497 337.4 24.0466 338.065 24.2395C338.734 24.4323 339.374 24.7176 339.966 25.087C340.551 25.4672 341.088 25.9184 341.563 26.4302C342.662 27.6184 343.322 29.1478 343.432 30.7637C343.56 31.6112 343.544 32.4907 343.56 33.3382ZM736.286 61.498V106.815C736.364 108.761 735.851 110.685 734.813 112.332C734.064 113.445 733.013 114.32 731.781 114.855C730.549 115.39 729.192 115.564 727.866 115.354C727.211 115.273 726.574 115.101 725.966 114.843C725.058 114.473 724.235 113.93 723.537 113.243C722.71 112.444 722.086 111.462 721.711 110.376C721.336 109.289 721.224 108.13 721.38 106.991V59.0034C721.38 54.2062 718.059 48.0976 715.152 45.2033C713.119 43.1944 710.698 41.6172 708.041 40.566C707.705 40.422 707.373 40.2941 707.02 40.1822C699.194 37.4957 689.594 38.839 683.332 44.4677C680.381 47.1479 678.232 50.5974 677.134 54.4298L676.845 55.5332C676.384 57.4929 676.156 59.5004 676.173 61.5139V104.576C676.173 109.246 675.424 114.491 669.958 115.37C668.533 115.598 667.068 115.409 665.742 114.827C664.885 114.436 664.105 113.895 663.442 113.228C661.207 110.989 661.237 108.91 661.254 106.559V61.498C661.215 57.02 661.947 52.5687 663.412 48.3375C663.601 47.7776 663.825 47.1863 664.066 46.5945L664.144 46.4188C664.385 45.8588 664.592 45.3472 664.799 44.8196C666.048 42.1058 667.633 39.5594 669.515 37.2399L670.695 35.8647C671.173 35.321 671.573 34.8893 671.892 34.5695C674.468 32.0078 677.414 29.8513 680.631 28.1732C687.436 24.7126 695.098 23.2913 702.692 24.0796C707.653 24.504 712.486 25.8831 716.926 28.1412C721.233 30.3544 725.04 33.4358 728.107 37.1919C731.591 41.4709 734.051 46.4928 735.295 51.8714C735.42 52.4309 735.549 53.0386 735.679 53.6623C736.178 56.2426 736.381 58.8716 736.286 61.498ZM426.578 100.099C424.985 102.809 422.899 105.195 420.428 107.135C419.964 107.487 419.469 107.871 418.926 108.239C418.383 108.622 417.855 108.958 417.328 109.262C412.648 112.054 407.455 113.876 402.057 114.619C396.014 115.497 389.872 115.438 383.847 114.443C379.948 113.853 376.138 112.778 372.505 111.245C369.16 109.825 366.056 107.894 363.304 105.52C361.516 104.127 360.009 102.407 358.863 100.451C358.232 99.0338 358.046 97.4575 358.332 95.9324C358.617 94.4068 359.36 93.0049 360.461 91.9122C361.167 91.1994 362.009 90.6348 362.936 90.2501C363.863 89.866 364.856 89.67 365.86 89.6734C370.109 89.6734 370.748 91.7042 373.16 93.927C373.44 94.1975 373.733 94.4533 374.038 94.6945C374.374 94.9663 374.693 95.2062 374.965 95.3979L375.748 95.9418L375.924 96.0538L377.01 96.6934C377.409 96.9169 377.792 97.109 378.128 97.2688L379.374 97.7968L380.7 98.2921L381.291 98.4842L382.026 98.7082L383.463 99.1079C383.879 99.2039 384.374 99.3159 384.981 99.4275L386.578 99.6997C388.272 99.9542 389.979 100.114 391.69 100.179C396.098 100.423 400.511 99.8207 404.693 98.4041C406.557 97.7236 408.328 96.8105 409.964 95.686C411.374 94.8061 412.527 93.57 413.307 92.1013C414.086 90.633 414.465 88.9847 414.405 87.3227C414.426 86.1447 414.248 84.9715 413.878 83.853L413.766 83.5648C413.323 82.5092 412.646 81.5685 411.785 80.8144C410.72 79.9009 409.532 79.1415 408.255 78.5597C403.892 76.6947 399.298 75.4255 394.597 74.7859C393 74.5141 391.227 74.2583 389.454 74.0024L387.313 73.6665C384.885 73.2827 382.249 72.8512 379.581 72.2435C376.82 71.6538 374.116 70.8248 371.499 69.7648C366.845 67.9933 362.847 64.8337 360.045 60.7141C357.486 56.7284 356.427 51.9614 357.058 47.2659C357.164 46.4157 357.319 45.5724 357.521 44.7395V44.4996C359.041 38.8373 362.516 33.8971 367.329 30.5558C369.371 29.1105 371.575 27.9084 373.895 26.9739C377.198 25.6301 380.661 24.7216 384.198 24.2715C388.727 23.7254 393.302 23.6825 397.84 24.1436H397.936C398.607 24.2235 399.326 24.3354 400.092 24.4634C405.451 25.2699 410.569 27.2342 415.092 30.22C416.159 30.9415 417.173 31.7377 418.127 32.6026C419.131 33.4245 420.028 34.3701 420.795 35.417C421.877 36.9335 422.365 38.7956 422.166 40.6488C421.966 42.5021 421.092 44.217 419.711 45.4673C418.33 46.7177 416.538 47.4158 414.676 47.4287C412.814 47.4421 411.012 46.7693 409.613 45.5393C408.062 43.9422 406.266 42.6033 404.294 41.5734C401.342 40.2084 398.184 39.3438 394.949 39.0149C390.965 38.5666 386.933 38.81 383.032 39.7345C379.808 40.3792 376.849 41.9714 374.534 44.3079C373.366 45.5927 372.638 47.2173 372.457 48.9452C371.546 57.5963 390.668 58.9073 394.294 59.4668C403.223 60.8261 412.281 62.2172 419.852 67.5902C422.836 69.6421 425.299 72.3628 427.046 75.5362C428.794 78.7091 429.776 82.2469 429.916 85.8678C429.916 86.7632 429.916 87.6586 429.916 88.554C429.755 92.6164 428.609 96.5788 426.578 100.099ZM254.935 42.4209C254.92 43.366 254.724 44.2993 254.36 45.1715C253.804 46.4971 252.868 47.6295 251.672 48.4258C250.476 49.2222 249.071 49.6477 247.635 49.6486C246.676 49.6438 245.727 49.4539 244.839 49.0891C243.319 48.263 241.952 47.1811 240.798 45.8907C239.708 44.9591 238.555 44.1046 237.347 43.3324C235.717 42.2564 233.983 41.3457 232.172 40.614C226.56 38.3888 220.424 37.8336 214.504 39.0149C212.501 39.4009 210.542 39.9902 208.658 40.7738C201.977 43.5459 196.462 48.5511 193.055 54.9367C189.647 61.3222 188.556 68.6932 189.968 75.7933C191.374 82.8783 195.191 89.2557 200.77 93.837C206.349 98.4183 213.343 100.92 220.559 100.915H221.213C226.984 100.791 232.607 99.0696 237.459 95.9418C238.764 95.099 240.003 94.1583 241.166 93.1272C241.884 92.5036 242.635 91.6241 243.37 91.0646C244.636 90.1097 246.178 89.5933 247.763 89.5933C249.698 89.5976 251.552 90.369 252.92 91.7386C254.288 93.1078 255.059 94.9641 255.063 96.901C255.078 97.886 254.899 98.8641 254.536 99.7794C254.164 100.666 253.621 101.47 252.938 102.146C248.688 106.392 243.653 109.77 238.114 112.092C232.54 114.389 226.57 115.567 220.543 115.562C217.539 115.564 214.543 115.27 211.597 114.683C208.666 114.098 205.799 113.231 203.035 112.092C194.683 108.598 187.544 102.72 182.508 95.1903C180.842 92.7103 179.43 90.0692 178.291 87.3067C177.141 84.5378 176.269 81.6611 175.687 78.7199C174.521 72.8068 174.521 66.7228 175.687 60.8101C176.859 54.9203 179.177 49.3182 182.508 44.3238C184.179 41.8256 186.089 39.496 188.211 37.3678C194.592 30.96 202.733 26.5962 211.597 24.8311C214.544 24.2521 217.54 23.9575 220.543 23.9516C232.424 23.9465 243.841 28.5687 252.379 36.8401C253.179 37.5333 253.821 38.3901 254.262 39.3528C254.703 40.3156 254.932 41.3618 254.935 42.4209ZM622.724 27.1498C625.359 28.3218 627.862 29.7633 630.201 31.4513C632.574 33.1555 634.766 35.0948 636.751 37.2399C640.748 41.5541 643.884 46.5975 645.981 52.0954C647.049 54.8609 647.855 57.7194 648.393 60.6344C650.047 69.4724 649.216 78.5971 645.981 86.9867C644.926 89.7367 643.617 92.3812 642.071 94.8862C638.323 101.103 633.052 106.26 626.755 109.867C620.458 113.474 613.347 115.412 606.094 115.498C603.239 115.495 600.392 115.189 597.597 114.587C594.793 113.995 592.062 113.106 589.452 111.932C586.829 110.727 584.335 109.259 582.005 107.551C574.847 102.382 569.351 95.2355 566.19 86.9867C565.126 84.2212 564.317 81.3627 563.778 78.4477C562.141 69.6356 562.977 60.5409 566.19 52.175C567.245 49.4255 568.559 46.781 570.105 44.276C573.189 39.2756 577.22 34.9293 581.975 31.4833C584.314 29.8011 586.821 28.36 589.452 27.1818C594.681 24.8324 600.349 23.6151 606.086 23.6097C611.818 23.6042 617.486 24.8105 622.724 27.1498Z" fill="white"/>
<path d="M759.862 3.63003L766.62 14.1519L773.313 3.63003C773.421 3.47047 773.55 3.3254 773.696 3.19828C773.826 3.0908 773.972 2.99954 774.127 2.92644C774.273 2.86066 774.429 2.81753 774.588 2.79852C774.743 2.77598 774.898 2.77598 775.053 2.79852C775.208 2.83614 775.354 2.90113 775.484 2.9904C775.613 3.0897 775.729 3.20225 775.837 3.32621C775.932 3.46919 776.005 3.62538 776.057 3.78994C776.082 3.96492 776.082 4.14265 776.057 4.31763V21.2038C776.065 21.3779 776.039 21.5519 775.979 21.7155C775.932 21.875 775.85 22.0224 775.738 22.1473C775.643 22.2639 775.531 22.3662 775.402 22.4511L775.006 22.627C774.721 22.6909 774.424 22.6909 774.14 22.627C774.002 22.5869 773.869 22.5277 773.744 22.4511C773.615 22.3717 773.498 22.2687 773.408 22.1473C773.296 22.0214 773.21 21.8747 773.149 21.7155C773.106 21.5485 773.08 21.3768 773.072 21.2038V9.38667L767.929 17.382C767.83 17.5509 767.705 17.7023 767.559 17.8298C767.421 17.9692 767.253 18.0733 767.064 18.1336C766.723 18.2611 766.353 18.2611 766.013 18.1336C765.827 18.0697 765.655 17.966 765.517 17.8298C765.38 17.7014 765.263 17.5498 765.181 17.382L760.022 9.38667V21.1878C760.022 21.3614 759.992 21.534 759.94 21.6995C759.884 21.8587 759.798 22.0054 759.686 22.1313C759.595 22.2486 759.488 22.351 759.367 22.4351L758.966 22.611H758.536C758.394 22.6267 758.247 22.6267 758.105 22.611C757.959 22.5723 757.816 22.5131 757.687 22.4351C757.567 22.351 757.459 22.2486 757.369 22.1313C757.257 22.0054 757.17 21.8587 757.114 21.6995C757.084 21.5301 757.084 21.3573 757.114 21.1878V4.3816C757.089 4.20135 757.089 4.01815 757.114 3.83791C757.157 3.66232 757.239 3.49853 757.351 3.35819C757.446 3.23016 757.562 3.11698 757.687 3.02239C757.829 2.94221 757.98 2.87786 758.135 2.8305C758.445 2.75071 758.773 2.78474 759.061 2.92644C759.401 3.06272 759.681 3.31103 759.862 3.63003ZM736.953 3.05437C737.117 3.0286 737.285 3.0286 737.449 3.05437H752.575C752.743 3.0286 752.906 3.0286 753.07 3.05437C753.238 3.09841 753.389 3.18054 753.518 3.29423C753.634 3.37896 753.738 3.48148 753.824 3.59805C753.901 3.72308 753.966 3.85731 754.013 3.99782C754.031 4.13596 754.031 4.27543 754.013 4.41357C754.031 4.54637 754.031 4.68054 754.013 4.81334C753.966 4.95383 753.901 5.08808 753.824 5.21311C753.738 5.32966 753.634 5.43221 753.518 5.51693C753.385 5.61961 753.234 5.69562 753.07 5.7408C752.906 5.76656 752.743 5.76656 752.575 5.7408H746.536V9.25875C746.536 10.586 746.536 11.8972 746.536 13.2245C746.536 16.1987 746.536 18.8372 746.536 21.2198C746.558 21.3632 746.558 21.5082 746.536 21.6515C746.498 21.7946 746.433 21.9297 746.347 22.0513L746.076 22.3391C745.977 22.4176 745.869 22.4872 745.757 22.547C745.542 22.6454 745.305 22.6998 745.068 22.7069C744.951 22.7225 744.835 22.7225 744.719 22.7069L744.383 22.595L744.064 22.3711C743.969 22.2868 743.888 22.19 743.823 22.0833C743.75 21.9641 743.698 21.8347 743.664 21.6995C743.638 21.5567 743.638 21.4105 743.664 21.2678V5.86872H737.608C737.444 5.89301 737.276 5.89301 737.113 5.86872C736.958 5.81454 736.811 5.73335 736.682 5.62887C736.57 5.53803 736.475 5.4301 736.393 5.30907C736.312 5.18688 736.256 5.05164 736.221 4.9093C736.195 4.77692 736.195 4.64188 736.221 4.50952C736.195 4.37191 736.195 4.23137 736.221 4.09376C736.256 3.95141 736.312 3.81618 736.393 3.69399C736.475 3.57621 736.574 3.46883 736.682 3.37418C736.815 3.2755 736.962 3.19484 737.113 3.13432L736.953 3.05437Z" fill="white"/>
</svg>
