<svg width="717" height="145" viewBox="0 0 717 145" fill="none" xmlns="http://www.w3.org/2000/svg">
<path d="M526.61 115.177L499.206 125.099L471.862 115.177C471.217 114.929 470.519 114.838 469.828 114.912C469.138 114.985 468.478 115.221 467.903 115.599C467.328 115.977 466.857 116.485 466.531 117.08C466.204 117.675 466.033 118.338 466.03 119.012V140.074C466.037 140.748 466.211 141.41 466.537 142.005C466.863 142.6 467.332 143.11 467.904 143.492C468.476 143.874 469.134 144.117 469.823 144.2C470.512 144.284 471.212 144.204 471.862 143.97L499.206 133.987L526.61 143.97C527.262 144.204 527.958 144.284 528.65 144.2C529.336 144.117 529.999 143.874 530.569 143.492C531.14 143.11 531.609 142.6 531.938 142.005C532.261 141.41 532.435 140.748 532.44 140.074V118.768C532.402 118.115 532.199 117.481 531.855 116.918C531.517 116.355 531.038 115.878 530.473 115.528C529.902 115.177 529.254 114.963 528.582 114.901C527.915 114.841 527.238 114.935 526.61 115.177Z" fill="white"/>
<path d="M72.7594 15.4649V7.4296C72.7594 6.33164 72.3102 5.27912 71.5106 4.50266C70.7109 3.7264 69.626 3.29026 68.4951 3.29026H4.3406C3.2096 3.29026 2.12494 3.7264 1.32521 4.50266C0.52547 5.27912 0.0761719 6.33164 0.0761719 7.4296V98.7406C0.0761719 99.8381 0.52547 100.891 1.32521 101.668C2.12494 102.443 3.2096 102.88 4.3406 102.88H12.8695C14.0063 102.88 15.0975 102.446 15.9072 101.671C16.7169 100.896 17.1801 99.8439 17.1966 98.7406V59.5987H47.9883C49.1194 59.5987 50.2038 59.1626 51.0035 58.3861C51.8032 57.6097 52.2528 56.5572 52.2528 55.4592V47.4239C52.2364 46.3308 51.7819 45.2869 50.9856 44.5143C50.1893 43.7413 49.1141 43.2999 47.9883 43.2844H17.1966V19.6044H68.4951C69.0574 19.6126 69.6158 19.5111 70.137 19.3061C70.6582 19.1011 71.1315 18.7965 71.5294 18.4102C71.9268 18.0244 72.2406 17.5646 72.4524 17.0589C72.6637 16.5527 72.7681 16.0108 72.7594 15.4649Z" fill="white"/>
<path d="M187.147 15.4649V7.4296C187.13 6.33696 186.676 5.29314 185.879 4.52007C185.083 3.74714 184.008 3.30597 182.882 3.29026H118.728C117.59 3.29017 116.5 3.72432 115.69 4.49879C114.88 5.27332 114.417 6.32632 114.401 7.4296V98.7406C114.417 99.8439 114.88 100.896 115.69 101.671C116.5 102.446 117.59 102.88 118.728 102.88H182.882C184.008 102.864 185.083 102.423 185.879 101.65C186.676 100.877 187.13 99.8332 187.147 98.7406V90.8266C187.147 90.2832 187.036 89.7451 186.822 89.2428C186.608 88.7405 186.294 88.284 185.898 87.8997C185.501 87.5153 185.031 87.2103 184.514 87.0024C183.997 86.7945 183.442 86.6871 182.882 86.6871H131.521V59.5987H162.312C162.875 59.6069 163.433 59.5054 163.954 59.3004C164.475 59.0949 164.949 58.7903 165.347 58.4045C165.745 58.0182 166.058 57.5589 166.27 57.0527C166.481 56.547 166.585 56.005 166.577 55.4592V47.4239C166.577 46.3259 166.128 45.2729 165.328 44.4969C164.528 43.7205 163.444 43.2844 162.312 43.2844H131.521V19.6044H182.882C183.442 19.6044 183.997 19.4976 184.514 19.2892C185.031 19.0813 185.501 18.7762 185.898 18.3919C186.294 18.0075 186.608 17.5511 186.822 17.0493C187.036 16.5469 187.147 16.0088 187.147 15.4649Z" fill="white"/>
<path d="M252.87 86.6252V7.48948C252.854 6.39635 252.399 5.35254 251.603 4.57946C250.807 3.80678 249.731 3.36561 248.605 3.3499H240.014C238.888 3.36561 237.813 3.80678 237.017 4.57946C236.22 5.35254 235.766 6.39635 235.749 7.48948V98.8C235.766 99.8931 236.22 100.936 237.017 101.71C237.813 102.483 238.888 102.924 240.014 102.939H302.726C303.852 102.924 304.927 102.483 305.724 101.71C306.52 100.936 306.974 99.8931 306.99 98.8V90.8256C306.99 89.7276 306.541 88.6746 305.742 87.8987C304.942 87.1222 303.857 86.6861 302.726 86.6861L252.87 86.6252Z" fill="white"/>
<path d="M499.201 0.546875C488.487 0.546875 478.01 3.63152 469.1 9.41061C460.189 15.19 453.245 23.4042 449.144 33.0147C445.043 42.6252 443.97 53.2001 446.06 63.4024C448.151 73.6051 453.312 82.9767 460.889 90.3323C468.467 97.6878 478.122 102.697 488.632 104.726C499.143 106.755 510.036 105.714 519.937 101.733C529.839 97.7526 538.3 91.0111 544.256 82.3617C550.208 73.7129 553.384 63.544 553.384 53.1416C553.384 39.193 547.679 25.8148 537.516 15.9515C527.354 6.08819 513.575 0.546875 499.201 0.546875ZM499.201 89.9097C491.76 89.9097 484.484 87.7674 478.298 83.7541C472.11 79.7408 467.287 74.0363 464.44 67.3625C461.592 60.6886 460.847 53.3447 462.298 46.2599C463.75 39.1746 467.334 32.6666 472.596 27.5587C477.859 22.4508 484.561 18.9722 491.862 17.5629C499.162 16.1536 506.729 16.8769 513.604 19.6414C520.479 22.4059 526.353 27.0873 530.487 33.0935C534.625 39.0997 536.83 46.1613 536.83 53.3853C536.917 58.2046 535.998 62.9909 534.137 67.4592C532.276 71.9279 529.51 75.9872 526 79.3951C522.485 82.8036 518.303 85.4908 513.701 87.297C509.098 89.1033 504.166 89.9919 499.201 89.9097Z" fill="white"/>
<path d="M364.685 86.6252V7.48948C364.668 6.38572 364.205 5.3332 363.395 4.55867C362.585 3.78396 361.494 3.3498 360.358 3.3499H351.829C350.698 3.3499 349.613 3.78599 348.813 4.56206C348.014 5.33851 347.564 6.39152 347.564 7.48948V98.8C347.564 99.898 348.014 100.95 348.813 101.727C349.613 102.503 350.698 102.939 351.829 102.939H414.541C415.678 102.939 416.769 102.505 417.578 101.731C418.388 100.956 418.851 99.9033 418.868 98.8V90.8256C418.868 90.2768 418.756 89.7334 418.538 89.2272C418.319 88.721 417.999 88.2617 417.597 87.8769C417.194 87.4916 416.716 87.188 416.192 86.9834C415.667 86.7789 415.106 86.6779 414.541 86.6861L364.685 86.6252Z" fill="white"/>
<path d="M712.989 3.29027H703.272C702.334 3.29467 701.425 3.5937 700.68 4.14249C699.931 4.69123 699.389 5.46043 699.133 6.33407L678.31 80.2957L657.428 6.39499C657.192 5.50491 656.655 4.71637 655.906 4.15424C655.156 3.5921 654.237 3.28815 653.29 3.29027H640.749C639.811 3.29467 638.902 3.5937 638.152 4.14249C637.408 4.69123 636.866 5.46043 636.605 6.33407L615.724 80.3566L594.843 6.33407C594.596 5.46527 594.064 4.698 593.329 4.14853C592.594 3.59921 591.69 3.29791 590.767 3.29027H580.416C579.811 3.29342 579.217 3.43372 578.675 3.70002C578.134 3.96636 577.669 4.3513 577.307 4.82418C576.949 5.29702 576.707 5.84528 576.606 6.42448C576.504 7.00319 576.543 7.59787 576.717 8.16014L605.692 100.019C605.948 100.87 606.49 101.616 607.224 102.143C607.959 102.671 608.854 102.951 609.767 102.941H620.931C621.878 102.943 622.797 102.639 623.546 102.077C624.296 101.515 624.832 100.726 625.069 99.8362L646.642 23.3784L668.215 99.8971C668.461 100.776 669.003 101.551 669.752 102.101C670.502 102.651 671.415 102.946 672.353 102.941H683.517C684.435 102.937 685.33 102.644 686.065 102.107C686.799 101.569 687.336 100.815 687.592 99.958L716.567 8.16014C716.736 7.60753 716.78 7.0235 716.683 6.45349C716.586 5.88347 716.359 5.34246 716.011 4.87156C715.668 4.40114 715.213 4.01408 714.691 3.73985C714.169 3.46568 713.584 3.31188 712.989 3.29027Z" fill="white"/>
</svg>
