<svg width="409" height="184" viewBox="0 0 409 184" fill="none" xmlns="http://www.w3.org/2000/svg">
<path d="M366.028 140.181L365.948 140.289L365.971 140.421C366.79 145.171 368.261 148.644 370.422 150.783C372.588 152.927 375.525 153.983 379.195 153.983C381.233 153.983 383.518 153.391 386.046 152.227C388.576 151.063 390.899 149.549 393.016 147.686L393.019 147.684C394.262 146.566 395.47 146.037 396.649 146.037C397.9 146.037 398.945 146.721 399.78 148.209C400.621 149.707 401.049 151.523 401.049 153.67C401.049 158.421 399.339 162.188 395.926 165.003C389.931 169.909 383.136 172.359 375.53 172.359C364.582 172.359 356.603 167.836 351.542 158.786C348.992 154.225 347.077 148.959 345.803 142.987L345.714 142.569L345.342 142.779L343.527 143.807C343.526 143.807 343.526 143.807 343.525 143.808C339.207 146.144 334.634 147.31 329.8 147.31C323.683 147.31 319.09 145.769 315.968 142.735C312.84 139.695 311.263 135.579 311.263 130.348C311.263 128.642 311.436 126.935 311.781 125.228L311.784 125.213L311.785 125.197C312.018 122.896 312.136 121.326 312.136 120.502C312.136 119.554 311.973 118.787 311.6 118.25C311.213 117.692 310.629 117.424 309.903 117.424C308.919 117.424 307.837 117.963 306.669 118.944C305.493 119.931 304.189 121.4 302.756 123.339C299.887 127.221 297.055 132.34 294.256 138.687C291.456 145.038 289.182 151.735 287.432 158.777L287.431 158.78C286.152 164.189 284.682 167.777 283.051 169.614C281.445 171.423 278.9 172.359 275.344 172.359C273.19 172.359 271.374 171.8 269.879 170.693C268.382 169.585 267.184 167.912 266.298 165.648C265.817 164.42 265.399 162.986 265.045 161.346L264.93 160.81L264.527 161.181C256.396 168.662 248.717 172.359 241.483 172.359C234.001 172.359 228.615 169.746 225.252 164.556C221.862 159.325 220.153 152.365 220.153 143.65C220.153 138.492 220.819 131.86 222.156 123.748C223.492 115.641 225.206 108.081 227.296 101.07L227.297 101.066C228.338 97.4033 229.711 94.9462 231.379 93.6251C233.042 92.3089 235.747 91.6198 239.563 91.6198C242.506 91.6198 244.658 92.107 246.067 93.0363C247.452 93.9507 248.151 95.3148 248.151 97.18C248.151 100.019 247.055 106.663 244.842 117.153C242.051 129.816 240.646 138.428 240.646 142.959C240.646 146.435 241.113 149.141 242.076 151.047C242.565 152.015 243.229 152.754 244.073 153.249C244.916 153.744 245.919 153.983 247.068 153.983C249.29 153.983 251.985 152.468 255.134 149.582C257.278 147.617 259.902 144.884 263.004 141.386C262.993 142.139 262.987 142.894 262.987 143.65L263.614 143.654L263.614 143.65L263.645 140.544L263.646 140.489C263.929 126.704 266.066 113.567 270.057 101.076L270.057 101.074C271.088 97.7874 272.767 95.4077 275.078 93.9011C277.393 92.3924 280.67 91.6198 284.943 91.6198C287.265 91.6198 288.815 91.9105 289.666 92.4367C290.465 92.9313 290.914 93.8932 290.914 95.4525C290.914 96.3383 290.702 97.8075 290.266 99.8795C289.831 101.944 289.178 104.587 288.306 107.809L288.305 107.814C287.141 112.424 286.208 116.46 285.509 119.921C284.808 123.391 284.225 127.664 283.759 132.738L284.363 132.88C288.196 122.994 292.488 114.961 297.235 108.772C301.992 102.572 306.646 98.1721 311.194 95.5512C315.76 92.9198 319.923 91.6198 323.691 91.6198C327.426 91.6198 330.169 92.5436 331.98 94.3363C333.791 96.1284 334.723 98.8415 334.723 102.535C334.723 103.998 334.207 107.593 333.158 113.36C332.692 115.664 332.343 117.539 332.109 118.983C331.877 120.422 331.756 121.452 331.756 122.056C331.756 124.1 332.123 125.689 332.906 126.774C333.703 127.878 334.897 128.416 336.433 128.416C338.559 128.416 341.015 127.389 343.789 125.407L343.923 125.311L343.92 125.146C343.908 124.465 343.902 123.782 343.902 123.093C343.902 109.069 345.732 93.0819 349.394 75.1304C353.055 57.1881 358.456 41.7873 365.593 28.9221C372.724 16.0691 381.163 9.73521 390.889 9.73521C396.357 9.73521 400.653 12.233 403.802 17.2753C406.957 22.3294 408.554 29.6038 408.554 39.1353C408.554 52.7846 404.758 68.6349 397.146 86.6932C389.535 104.749 379.164 122.578 366.028 140.181ZM364.57 117.214L364.549 118.363L365.15 117.383C373.422 103.892 380.006 90.3695 384.901 76.8153C389.797 63.2582 392.25 50.8699 392.25 39.6535C392.25 35.2665 391.843 31.9389 391.009 29.6973C390.591 28.5745 390.058 27.7037 389.397 27.1115C388.729 26.5134 387.942 26.211 387.05 26.211C386.283 26.211 385.523 26.5539 384.776 27.1804C384.029 27.8064 383.274 28.7318 382.509 29.9414C380.977 32.3607 379.368 35.9713 377.678 40.7585C374.296 50.3383 371.325 62.218 368.764 76.394C366.201 90.5746 364.803 104.181 364.57 117.214ZM242.879 79.5915C238.034 79.5915 234.459 78.4777 232.095 76.3054C229.73 74.1314 228.531 71.0847 228.531 67.1211C228.531 63.1865 230.087 59.904 233.22 57.2544C236.356 54.6023 240.266 53.2688 244.974 53.2688C249.229 53.2688 252.646 54.2926 255.254 56.3127C257.844 58.3185 259.147 61.1581 259.147 64.8753C259.147 69.4063 257.663 72.9729 254.714 75.6116C251.758 78.2554 247.824 79.5915 242.879 79.5915Z" fill="white" stroke="white" stroke-width="0.62667"/>
<path d="M37.0933 1.83618H60.0862V61.0822H0.840089V38.0894C0.840089 18.0673 17.0712 1.83618 37.0933 1.83618Z" fill="white" stroke="#616161" stroke-width="1.68018"/>
<path d="M61.7668 61.0822V1.83618H121.013V61.0822H61.7668Z" fill="white" stroke="#616161" stroke-width="1.68018"/>
<path d="M122.694 1.83618H145.686C165.709 1.83618 181.94 18.0673 181.94 38.0894V61.0822H122.694V1.83618Z" fill="white" stroke="#616161" stroke-width="1.68018"/>
<path d="M0.840089 122.004V62.7581H60.0862V122.004H0.840089Z" fill="white" stroke="#616161" stroke-width="1.68018"/>
<path d="M61.7668 122.004V62.7581H121.013V122.004H61.7668Z" fill="white" stroke="#616161" stroke-width="1.68018"/>
<path d="M122.694 122.004V62.7581H181.94V122.004H122.694Z" fill="white" stroke="#616161" stroke-width="1.68018"/>
<path d="M0.840089 123.69H60.0862V182.936H37.0933C17.0712 182.936 0.840089 166.705 0.840089 146.683V123.69Z" fill="white" stroke="#616161" stroke-width="1.68018"/>
<path d="M61.7668 182.936V123.69H121.013V182.936H61.7668Z" fill="white" stroke="#616161" stroke-width="1.68018"/>
<path d="M122.694 123.69H181.94V146.683C181.94 166.705 165.709 182.936 145.686 182.936H122.694V123.69Z" fill="white" stroke="#616161" stroke-width="1.68018"/>
<path d="M43.9885 118.601L43.9886 118.601C46.5894 124.927 50.407 130.669 55.1997 135.502L55.7963 134.911L55.1997 135.502C64.8211 145.205 77.8495 150.764 91.7324 150.764C105.615 150.764 118.644 145.205 128.265 135.502L128.265 135.502C133.058 130.667 136.875 124.927 139.476 118.601L139.476 118.601C141.086 114.683 139.252 110.181 135.362 108.547C131.466 106.911 127.005 108.779 125.393 112.701C123.562 117.151 120.876 121.199 117.487 124.615L117.487 124.616C110.697 131.465 101.53 135.374 91.7324 135.374C81.9345 135.374 72.7699 131.465 65.9777 124.616L65.9777 124.615C62.5891 121.199 59.9032 117.151 58.0719 112.701C56.4601 108.781 51.9987 106.911 48.1032 108.547C44.2125 110.181 42.3787 114.683 43.9885 118.601Z" fill="white" stroke="#616161" stroke-width="1.68018"/>
</svg>
