<svg width="347" height="182" viewBox="0 0 347 182" fill="none" xmlns="http://www.w3.org/2000/svg">
<path d="M0.179199 143.836H27.5914V114.9L36.7289 105.573L64.5218 143.836H98.0257L55.9555 86.9171L97.8353 44.8469H65.0929L26.83 83.8712V0.873047H0.179199V143.836Z" fill="white"/>
<path d="M121.743 44.8438H93.189L130.69 141.738C131.833 144.784 132.404 146.878 132.404 149.163C132.404 155.254 128.977 158.3 122.505 158.3H98.3288V181.905H122.505C137.544 181.905 151.25 178.859 158.103 159.633L199.411 44.8438H172.19L147.633 119.847L121.743 44.8438Z" fill="white"/>
<path d="M233.383 0.873047H206.733V143.836H233.383V0.873047Z" fill="white"/>
<path d="M342.095 124.413C338.859 124.413 336.384 123.651 336.384 118.702V81.7715C336.384 52.646 314.112 42.9375 292.601 42.9375C266.711 42.9375 248.436 56.4533 248.436 78.7257H272.612C272.993 69.969 280.417 64.0678 291.458 64.0678C302.499 64.0678 309.543 70.1594 309.543 81.2005V85.5788H283.082C257.764 85.5788 245.962 97.5716 245.962 115.275C245.962 134.312 260.049 145.733 281.94 145.733C296.598 145.733 308.02 140.594 313.54 132.218C315.634 140.784 322.868 143.83 331.625 143.83H346.093V124.413H342.095ZM309.543 106.519C309.543 118.321 301.928 124.794 288.793 124.794C280.037 124.794 273.374 121.748 273.374 113.562C273.374 108.232 276.42 102.902 287.842 102.902H309.543V106.519Z" fill="white"/>
</svg>
