<svg width="546" height="141" viewBox="0 0 546 141" fill="none" xmlns="http://www.w3.org/2000/svg">
<path d="M545.179 0.294922H428.762V37.2221H465.51V140.48H508.428V37.2221H545.179V0.294922Z" fill="white"/>
<path d="M417.647 0.294922H373.28L349.082 36.2796L326.365 0.294922H279.306L324.984 70.9915L279.959 140.48H325.904L348.456 104.847L371.373 140.48H418.413L372.522 69.705L417.647 0.294922Z" fill="white"/>
<path d="M88.7709 68.6666L88.8197 69.8447L40.9376 0.296485H0.733398V140.484H41.1597V66.6733L91.704 140.484H129.189V0.296485H88.7709V68.6666Z" fill="white"/>
<path d="M150.888 0.294922V35.6134H202.134L147.901 140.48H264.757V104.934H210.684L265.919 0.294922H150.888Z" fill="white"/>
</svg>
