<svg width="652" height="124" viewBox="0 0 652 124" fill="none" xmlns="http://www.w3.org/2000/svg">
<path fill-rule="evenodd" clip-rule="evenodd" d="M46.9059 2.02282C45.8147 2.4214 44.922 3.1933 44.922 3.73798C44.922 4.46661 43.5422 4.78401 39.6917 4.93912C34.8924 5.1339 34.4415 5.28541 34.2305 6.77515C34.0321 8.18012 33.5686 8.39834 30.8037 8.39834C28.0894 8.39834 27.6078 8.6148 27.6078 9.84122C27.6078 10.8999 27.1263 11.284 25.8043 11.284C24.3614 11.284 24.0007 11.6447 24.0007 13.0876C24.0007 14.5304 23.64 14.8912 22.1972 14.8912C20.7543 14.8912 20.3936 15.2519 20.3936 16.6947C20.3936 18.0167 20.0094 18.4983 18.9507 18.4983C17.9895 18.4983 17.5079 18.9799 17.5079 19.9411C17.5079 20.9998 17.0264 21.384 15.7044 21.384C14.2759 21.384 13.9008 21.7483 13.9008 23.137C13.9008 24.4067 13.4517 24.955 12.2776 25.1209C10.9285 25.3121 10.6165 25.8694 10.4326 28.4178C10.254 30.8959 9.94198 31.4839 8.80935 31.4839C7.61179 31.4839 7.408 31.9997 7.408 35.0405C7.408 38.1805 7.21681 38.6242 5.78478 38.828C4.20487 39.0534 4.15619 39.3203 3.9596 48.7457C3.77744 57.4334 3.6115 58.5336 2.33638 59.4264C0.143259 60.963 0.500363 67.555 2.77645 67.555C3.55378 67.555 3.80267 69.7265 3.96138 77.8353C4.15617 87.8775 4.19946 88.121 5.78478 88.3464C7.18975 88.5448 7.408 89.0084 7.408 91.7732C7.408 94.4587 7.63163 94.9691 8.81116 94.9691C9.97445 94.9691 10.2522 95.5571 10.4343 98.3959C10.6219 101.319 10.8925 101.857 12.2776 102.053C13.2966 102.198 13.9008 102.784 13.9008 103.626C13.9008 104.468 14.505 105.055 15.524 105.199C16.5664 105.347 17.2301 106.01 17.378 107.053C17.5223 108.072 18.1085 108.676 18.9507 108.676C19.793 108.676 20.3792 109.28 20.5235 110.299C20.6713 111.342 21.3351 112.005 22.3775 112.153C23.42 112.301 24.0007 112.882 24.0007 113.777C24.0007 114.77 24.5021 115.169 25.7538 115.169C27.0235 115.169 27.5718 115.618 27.7377 116.792C27.9289 118.141 28.4862 118.453 31.0346 118.637C33.4477 118.812 34.1006 119.14 34.1006 120.183C34.1006 121.893 35.4803 122.383 40.2922 122.383C42.4421 122.383 44.2005 122.708 44.2005 123.105C44.2005 123.563 49.6112 123.826 58.9897 123.826C67.8957 123.826 73.7789 123.552 73.7789 123.137C73.7789 122.758 75.9702 122.353 78.6485 122.235C82.867 122.051 83.6118 121.81 84.216 120.434C84.7409 119.238 85.6354 118.79 87.8231 118.63C90.2111 118.453 90.7738 118.125 90.9631 116.792C91.1381 115.553 91.6683 115.169 93.2013 115.169C94.3448 115.169 96.0492 114.392 97.1566 113.365C98.2279 112.373 99.3894 111.562 99.7392 111.562C100.087 111.562 100.569 110.947 100.807 110.196C101.045 109.446 101.88 108.665 102.659 108.461C103.779 108.168 104.079 107.466 104.079 105.136C104.079 102.468 104.252 102.183 105.882 102.183C107.325 102.183 107.686 101.823 107.686 100.38C107.686 99.0938 108.075 98.5762 109.044 98.5762C110.44 98.5762 111.264 96.7546 111.284 93.6398C111.289 92.5595 111.814 91.811 112.736 91.5712C114.041 91.2303 114.179 90.5864 114.179 84.8349C114.179 78.7912 114.258 78.4648 115.802 78.2465C117.423 78.0157 117.425 78.0012 117.425 63.5872C117.425 49.1732 117.423 49.1587 115.802 48.9279C114.256 48.7079 114.179 48.3904 114.179 42.188C114.179 36.285 114.043 35.6429 112.736 35.3002C111.866 35.073 111.289 34.3101 111.284 33.3831C111.264 30.4126 110.414 28.5982 109.044 28.5982C108.075 28.5982 107.686 28.0806 107.686 26.7946C107.686 25.3518 107.325 24.9911 105.882 24.9911C104.225 24.9911 104.079 24.726 104.079 21.7447C104.079 19.0736 103.844 18.4983 102.751 18.4983C102.023 18.4983 101.054 17.6867 100.603 16.6947C100.145 15.6901 99.1729 14.8912 98.4064 14.8912C97.6507 14.8912 96.868 14.2635 96.6678 13.4952C96.4279 12.579 95.4125 11.9333 93.6973 11.6123C91.7982 11.2552 91.093 10.7556 91.093 9.76003C91.093 8.63281 90.5501 8.39834 87.9241 8.39834C85.1467 8.39834 84.7012 8.1765 84.3044 6.59478C83.8752 4.88682 83.5848 4.79123 78.8144 4.79123C74.3776 4.79123 73.7789 4.63074 73.7789 3.44219C73.7789 1.22923 52.1993 0.0894031 46.9059 2.02282ZM448.017 1.6819C447.322 1.86225 446.754 2.63598 446.754 3.40069C446.754 4.64334 446.208 4.79123 441.657 4.79123C436.268 4.79123 433.769 5.59922 433.769 7.34146C433.769 7.9709 433.08 8.39834 432.063 8.39834C431.125 8.39834 429.572 9.01518 428.612 9.77087C427.653 10.5248 426.066 11.2552 425.088 11.3941C423.889 11.5636 423.232 12.175 423.077 13.268C422.929 14.3104 422.349 14.8912 421.454 14.8912C420.449 14.8912 420.062 15.3943 420.062 16.6947C420.062 18.1376 419.701 18.4983 418.258 18.4983C416.958 18.4983 416.455 18.886 416.455 19.8906C416.455 20.7852 415.874 21.3659 414.831 21.5138C413.789 21.6617 413.125 22.3254 412.977 23.3679C412.829 24.4103 412.249 24.9911 411.354 24.9911C410.187 24.9911 409.962 25.5105 409.962 28.187C409.962 30.9518 409.744 31.4153 408.339 31.6137C406.979 31.8067 406.679 32.3604 406.488 35.0135C406.331 37.2138 405.781 38.5701 404.685 39.4574C401.68 41.8886 401.945 87.4916 404.968 88.2815C406.07 88.5701 406.355 89.2951 406.355 91.8074C406.355 94.6985 406.508 94.9691 408.158 94.9691C409.821 94.9691 409.962 95.2288 409.962 98.2822C409.962 100.989 410.225 101.666 411.405 101.974C412.204 102.183 412.847 102.959 412.847 103.711C412.847 104.679 413.365 105.069 414.651 105.069C416.06 105.069 416.455 105.437 416.455 106.754C416.455 108.582 420.071 112.283 421.86 112.283C422.466 112.283 422.947 112.922 422.947 113.726C422.947 114.774 423.429 115.169 424.7 115.169C425.97 115.169 426.518 115.618 426.684 116.792C426.876 118.141 427.433 118.453 429.981 118.637C432.394 118.812 433.047 119.14 433.047 120.183C433.047 121.893 434.427 122.383 439.239 122.383C441.389 122.383 443.147 122.708 443.147 123.105C443.147 123.563 448.679 123.826 458.297 123.826C467.915 123.826 473.447 123.563 473.447 123.105C473.447 122.699 475.463 122.383 478.053 122.383C482.171 122.383 482.786 122.192 483.841 120.58C484.726 119.229 485.652 118.776 487.531 118.776C489.726 118.776 490.04 118.551 490.04 116.972C490.04 115.315 490.305 115.169 493.286 115.169C495.99 115.169 496.532 114.94 496.532 113.804C496.532 112.951 497.207 112.271 498.336 111.987C499.817 111.616 500.14 111.096 500.14 109.084C500.14 107.735 500.545 106.485 501.041 106.306C501.763 106.045 501.763 105.673 501.041 104.452C500.545 103.612 500.14 101.945 500.14 100.749V98.5762H494.788C488.499 98.5762 487.154 98.9712 487.154 100.818C487.154 101.794 486.638 102.183 485.35 102.183C484.055 102.183 483.547 102.573 483.547 103.563C483.547 104.616 482.845 105.06 480.573 105.444C478.556 105.785 477.487 106.375 477.251 107.278C476.969 108.36 476.068 108.651 472.469 108.824C468.671 109.006 467.933 109.269 467.324 110.66C466.189 113.248 453.684 113.098 451.188 110.467C449.885 109.095 448.754 108.676 446.343 108.676C444 108.676 443.012 108.33 442.471 107.318C442.07 106.57 440.635 105.751 439.279 105.496C437.668 105.193 436.683 104.539 436.442 103.608C436.22 102.762 435.455 102.183 434.557 102.183C433.686 102.183 433.047 101.718 433.047 101.083C433.047 100.479 432.281 99.6908 431.343 99.3355C430.405 98.9784 429.462 98.0135 429.245 97.1893C429.031 96.365 428.36 95.6905 427.754 95.6905C427.15 95.6905 426.551 94.96 426.425 94.0673C426.277 93.0248 425.613 92.3611 424.571 92.2132C423.166 92.0149 422.947 91.5514 422.947 88.7865C422.947 86.0722 422.731 85.5906 421.505 85.5906C420.359 85.5906 420.06 85.1072 420.054 83.2459C420.036 78.3204 419.216 75.4907 417.804 75.4907C416.541 75.4907 416.455 74.7314 416.455 63.5872C416.455 53.4007 416.613 51.6837 417.555 51.6837C419.001 51.6837 420.062 48.762 420.062 44.7833C420.062 42.0653 420.278 41.5838 421.505 41.5838C422.731 41.5838 422.947 41.1023 422.947 38.3879C422.947 35.6231 423.166 35.1596 424.571 34.9612C425.613 34.8133 426.277 34.1495 426.425 33.1071C426.567 32.1025 427.155 31.4839 427.968 31.4839C428.769 31.4839 429.46 30.7787 429.736 29.6803C430.028 28.5152 430.695 27.8768 431.619 27.8768C432.55 27.8768 433.047 27.3916 433.047 26.4844C433.047 25.5899 433.628 25.0091 434.67 24.8612C435.713 24.7134 436.377 24.0496 436.525 23.0072C436.723 21.6022 437.186 21.384 439.951 21.384C442.666 21.384 443.147 21.1676 443.147 19.9411C443.147 18.7021 443.631 18.4965 446.574 18.4892C451.384 18.4748 453.247 17.849 453.247 16.2493C453.247 14.1788 466.629 14.177 467.288 16.2475C467.733 17.6542 470.422 18.4983 474.459 18.4983C475.84 18.4983 477.218 19.0646 477.969 19.9411C478.697 20.7906 480.097 21.384 481.375 21.384C483.026 21.384 483.547 21.7122 483.547 22.7492C483.547 24.3544 484.896 24.9911 488.296 24.9911C490.28 24.9911 490.761 25.2724 490.761 26.4339C490.761 27.6369 491.243 27.8768 493.647 27.8768C496.051 27.8768 496.532 27.6369 496.532 26.4339C496.532 25.3752 497.014 24.9911 498.336 24.9911C500.087 24.9911 500.14 24.8468 500.14 19.9411C500.14 15.4683 499.983 14.8912 498.774 14.8912C497.921 14.8912 497.241 14.2166 496.958 13.0876C496.67 11.9369 495.997 11.284 495.1 11.284C494.329 11.284 493.349 10.6348 492.925 9.84122C492.355 8.77712 491.414 8.39834 489.343 8.39834C486.977 8.39834 486.496 8.14044 486.303 6.77515C486.092 5.28541 485.641 5.1339 480.842 4.93912C477.965 4.82369 475.611 4.42514 475.611 4.05721C475.611 1.67652 454.867 -0.109036 448.017 1.6819ZM581.092 1.69637C580.183 1.87132 579.051 2.6378 578.574 3.40251C577.858 4.54777 576.863 4.79123 572.908 4.79123C568.392 4.79123 568.083 4.89764 567.657 6.59478C567.266 8.14945 566.799 8.39834 564.265 8.39834C561.96 8.39834 561.246 8.70136 560.959 9.80153C560.757 10.5716 559.895 11.3021 559.042 11.4247C558.072 11.5618 557.406 12.2526 557.262 13.268C557.114 14.3104 556.533 14.8912 555.639 14.8912C554.634 14.8912 554.246 15.3943 554.246 16.6947C554.246 18.1376 553.886 18.4983 552.443 18.4983C551.142 18.4983 550.639 18.886 550.639 19.8906C550.639 20.7852 550.058 21.3659 549.016 21.5138C547.974 21.6617 547.31 22.3254 547.162 23.3679C547.014 24.4103 546.433 24.9911 545.539 24.9911C544.372 24.9911 544.146 25.5105 544.146 28.187C544.146 30.9518 543.928 31.4153 542.523 31.6137C541.138 31.8103 540.867 32.3478 540.68 35.2714C540.503 38.0164 540.2 38.6981 539.154 38.6981C537.545 38.6981 536.932 42.3864 536.932 52.057C536.932 57.0998 536.669 58.9394 535.85 59.6194C535.188 60.1695 534.768 61.7512 534.768 63.699C534.768 65.8597 535.114 67.0121 535.85 67.2935C536.712 67.6253 536.934 69.1927 536.939 75.0272C536.95 84.6004 537.506 87.8504 539.206 88.2959C540.247 88.5683 540.539 89.3384 540.539 91.8074C540.539 94.6985 540.693 94.9691 542.343 94.9691C544.006 94.9691 544.146 95.2288 544.146 98.2822C544.146 100.989 544.41 101.666 545.589 101.974C546.388 102.183 547.032 102.959 547.032 103.711C547.032 104.679 547.55 105.069 548.836 105.069C550.279 105.069 550.639 105.43 550.639 106.873C550.639 108.315 551 108.676 552.443 108.676C553.886 108.676 554.246 109.037 554.246 110.48C554.246 111.802 554.63 112.283 555.689 112.283C556.65 112.283 557.132 112.765 557.132 113.726C557.132 114.774 557.614 115.169 558.885 115.169C560.155 115.169 560.703 115.618 560.869 116.792C561.06 118.141 561.617 118.453 564.166 118.637C565.852 118.76 567.232 119.142 567.232 119.487C567.232 121.29 569.703 122.383 573.777 122.383C576.147 122.383 578.053 122.704 578.053 123.105C578.053 123.563 583.464 123.826 592.842 123.826C601.748 123.826 607.632 123.552 607.632 123.137C607.632 122.758 609.823 122.353 612.501 122.235C616.925 122.042 617.392 121.875 617.602 120.399C617.8 118.994 618.263 118.776 621.028 118.776C623.956 118.776 624.224 118.625 624.224 116.972C624.224 115.411 624.545 115.169 626.619 115.169C628.275 115.169 629.498 114.612 630.582 113.365C631.444 112.373 632.64 111.562 633.237 111.562C633.843 111.562 634.324 110.923 634.324 110.119C634.324 109.185 634.806 108.676 635.689 108.676C637.237 108.676 637.931 107.332 637.931 104.339C637.931 102.757 638.305 102.23 639.555 102.053C640.57 101.909 641.261 101.244 641.398 100.273C641.52 99.4202 642.251 98.5582 643.021 98.3562C644.123 98.0694 644.424 97.3552 644.424 95.0358C644.424 93.4126 644.725 92.0834 645.093 92.0834C647.131 92.0834 648.031 89.663 648.031 84.1802C648.031 79.3052 648.212 78.4972 649.364 78.196C652.692 77.3267 652.706 48.798 649.38 48.798C648.181 48.798 648.031 48.1903 648.031 43.3405C648.031 37.616 647.25 35.091 645.481 35.091C644.709 35.091 644.424 34.2144 644.424 31.8446C644.424 29.1176 644.2 28.5982 643.032 28.5982C642.137 28.5982 641.557 28.0175 641.409 26.975C641.263 25.9452 640.599 25.2689 639.594 25.1264C638.294 24.9424 637.971 24.358 637.791 21.8799C637.61 19.4055 637.286 18.8175 635.992 18.6336C635.011 18.4947 634.328 17.8147 634.189 16.8372C634.064 15.9733 633.385 15.1563 632.676 15.021C631.969 14.8857 630.603 13.9894 629.642 13.0299C628.683 12.0704 627.07 11.284 626.06 11.284C624.706 11.284 624.224 10.9053 624.224 9.84122C624.224 8.613 623.743 8.39834 620.978 8.39834C617.997 8.39834 617.731 8.25225 617.731 6.59478C617.731 4.84533 617.582 4.79123 612.766 4.79123C608.542 4.79123 607.747 4.59106 607.451 3.45843C606.917 1.41861 588.842 0.212045 581.092 1.69637ZM158.185 46.3398C158.185 86.9252 158.218 87.8992 159.592 88.2581C160.748 88.5611 161.085 89.5079 161.489 93.6002C161.897 97.7447 162.198 98.5762 163.288 98.5762C164.31 98.5762 164.644 99.2435 164.817 101.642C165.001 104.191 165.313 104.748 166.662 104.939C167.851 105.107 168.285 105.652 168.285 106.97C168.285 109.212 169.494 111.558 170.655 111.574C171.137 111.582 172.296 112.393 173.231 113.378C174.165 114.363 175.707 115.169 176.657 115.169C178.019 115.169 178.385 115.551 178.385 116.972C178.385 118.415 178.746 118.776 180.189 118.776C181.323 118.776 181.992 119.184 181.992 119.876C181.992 121.276 184.882 122.383 188.532 122.383C190.094 122.383 191.371 122.708 191.371 123.105C191.371 123.561 196.421 123.826 205.078 123.826C213.735 123.826 218.785 123.561 218.785 123.105C218.785 122.708 220.489 122.378 222.572 122.372C226.686 122.36 227.662 121.968 228.374 120.039C228.63 119.344 229.5 118.776 230.304 118.776C231.388 118.776 231.77 118.303 231.77 116.972C231.77 115.342 232.055 115.169 234.723 115.169C237.026 115.169 237.756 114.864 238.038 113.787C238.236 113.028 239.181 112.209 240.135 111.969C241.645 111.591 241.87 111.115 241.87 108.301C241.87 105.334 242.018 105.069 243.674 105.069C245.066 105.069 245.477 104.697 245.477 103.439C245.477 102.542 246.127 101.404 246.92 100.908C248.069 100.19 248.363 99.2255 248.363 96.1612C248.363 92.7579 248.571 92.2204 250.167 91.4936L251.97 90.6712V4.73712L238.624 5.15196L238.436 40.2384C238.254 74.5835 238.22 75.3338 236.813 75.7017C235.489 76.048 235.377 76.6973 235.377 84.081V92.0834H233.574C232.182 92.0834 231.77 92.4549 231.77 93.7138C231.77 94.6102 231.121 95.7482 230.328 96.2442C229.332 96.8664 228.885 97.9269 228.885 99.6638C228.885 101.87 228.661 102.183 227.081 102.183C225.777 102.183 225.278 102.571 225.278 103.581C225.278 104.687 224.596 105.083 222.031 105.468C219.542 105.841 218.785 106.263 218.785 107.277C218.785 108.341 218.119 108.64 215.358 108.817C212.434 109.004 211.897 109.275 211.7 110.66C211.329 113.275 200.612 113.126 198.879 110.48C197.916 109.01 197.113 108.676 194.534 108.676C191.912 108.676 191.371 108.443 191.371 107.311C191.371 106.476 190.705 105.78 189.654 105.516C188.709 105.278 187.765 104.432 187.556 103.633C187.255 102.479 186.575 102.183 184.223 102.183H181.271V98.9369C181.271 96.237 181.042 95.6905 179.909 95.6905C178.852 95.6905 178.441 94.9745 178.068 92.4802C177.725 90.1933 177.182 89.1418 176.183 88.8244C174.812 88.3897 174.778 87.3617 174.778 46.585V4.79123H158.185V46.3398ZM285.877 10.4742C285.877 18.5307 284.714 18.0943 306.908 18.363L325.555 18.5867V69.2648C325.555 128.551 324.486 122.517 334.945 122.23L342.509 122.022L342.879 18.4983L360.369 18.4135C369.988 18.3666 378.832 18.1195 380.023 17.867L382.187 17.4053L382.604 4.79123H285.877V10.4742ZM67.6558 16.5143C68.269 17.9103 69.0012 18.1682 72.8771 18.3522C76.7944 18.5398 77.386 18.7526 77.386 19.9754C77.386 21.1856 77.8964 21.384 80.9931 21.384C84.3603 21.384 84.6002 21.5048 84.6002 23.1875C84.6002 24.5095 84.9843 24.9911 86.043 24.9911C87.0043 24.9911 87.4859 25.4726 87.4859 26.4339C87.4859 27.4926 87.9674 27.8768 89.2894 27.8768C90.7106 27.8768 91.093 28.2429 91.093 29.6046C91.093 30.5551 91.8992 32.0971 92.8839 33.0313C93.8687 33.9656 94.6803 35.4607 94.6875 36.3535C94.6965 37.4915 95.1312 37.9767 96.143 37.9767C97.3694 37.9767 97.5858 38.4582 97.5858 41.1762C97.5858 45.1548 98.6463 48.0766 100.093 48.0766C101.045 48.0766 101.193 50.1687 101.193 63.5872C101.193 77.0056 101.045 79.0978 100.093 79.0978C98.6932 79.0978 97.5858 81.9871 97.5858 85.6375C97.5858 87.9316 97.3261 88.4763 96.2349 88.4763C95.2177 88.4763 94.7704 89.1869 94.4224 91.3619C94.1464 93.0934 93.3889 94.6048 92.5268 95.1422C91.7387 95.6346 91.093 96.6085 91.093 97.3065C91.093 98.1794 90.5303 98.5762 89.2894 98.5762C87.8466 98.5762 87.4859 98.9369 87.4859 100.38C87.4859 101.702 87.1017 102.183 86.043 102.183C85.0817 102.183 84.6002 102.665 84.6002 103.626C84.6002 104.717 84.1168 105.071 82.6163 105.078C79.2184 105.096 77.386 105.879 77.386 107.318C77.386 108.507 76.8106 108.676 72.7797 108.676C68.6622 108.676 68.0471 108.867 66.9921 110.48C65.5276 112.716 53.579 113.342 53.579 111.183C53.579 109.758 50.6735 108.676 46.8518 108.676C44.6334 108.676 43.5927 108.301 42.9471 107.269C42.4637 106.496 40.9541 105.653 39.5942 105.397C38.0125 105.101 36.9899 104.436 36.7591 103.558C36.5499 102.759 35.7689 102.183 34.8888 102.183C34.014 102.183 33.3792 101.718 33.3792 101.078C33.3792 100.472 32.8111 99.7593 32.1167 99.4978C30.0065 98.7006 26.8864 95.1729 26.8864 93.5822C26.8864 92.5649 26.4229 92.0834 25.4436 92.0834C24.4318 92.0834 23.9971 91.6 23.9917 90.4602C23.9718 87.4428 23.135 85.5906 21.7859 85.5906C20.6659 85.5906 20.4297 84.8962 20.2475 81.0817C20.0635 77.2059 19.8056 76.4736 18.4097 75.8604C16.8226 75.1642 16.7865 74.8865 16.7865 63.5313V51.9146L18.59 51.0939C20.2241 50.3491 20.3936 49.8621 20.3936 45.9286C20.3936 42.5938 20.6389 41.5838 21.4505 41.5838C22.7617 41.5838 24.0007 39.3708 24.0007 37.0262C24.0007 35.8665 24.4967 35.1289 25.4436 34.8818C26.3958 34.6329 26.8864 33.897 26.8864 32.7175C26.8864 31.538 27.377 30.8022 28.3292 30.5533C29.1228 30.3459 29.7721 29.6948 29.7721 29.105C29.7721 28.5152 30.5837 27.8299 31.5756 27.581C32.5676 27.3321 33.3792 26.6828 33.3792 26.1381C33.3792 25.5934 34.1908 24.9442 35.1828 24.6953C36.2956 24.4157 36.9863 23.7304 36.9863 22.9062C36.9863 21.9052 37.7059 21.4525 39.8377 21.1116C41.4068 20.8609 42.9489 20.2153 43.2645 19.676C43.5873 19.1241 45.5676 18.5325 47.7788 18.3269C50.6609 18.0582 52.0171 17.555 52.8287 16.453C54.5782 14.0795 66.6097 14.13 67.6558 16.5143ZM601.139 16.2565C601.139 18.0077 602.493 18.4983 607.33 18.4983C610.757 18.4983 611.239 18.675 611.239 19.9411C611.239 21.1694 611.72 21.384 614.485 21.384C617.466 21.384 617.731 21.5301 617.731 23.1875C617.731 24.6304 618.092 24.9911 619.535 24.9911C620.857 24.9911 621.339 25.3752 621.339 26.4339C621.339 27.3952 621.82 27.8768 622.781 27.8768C623.773 27.8768 624.224 28.3583 624.224 29.417C624.224 30.2647 625.036 31.7093 626.028 32.6291C627.041 33.5688 627.831 35.1054 627.831 36.1389C627.831 37.6178 628.183 37.9767 629.635 37.9767C631.357 37.9767 631.438 38.1696 631.438 42.2998C631.438 45.8402 631.7 46.7853 632.881 47.5229C634.755 48.6934 635.177 79.0978 633.32 79.0978C631.962 79.0978 631.438 80.7047 631.438 84.8782C631.438 87.9568 631.244 88.4041 629.815 88.6061C628.526 88.7901 628.147 89.3708 627.974 91.4413C627.815 93.335 627.276 94.3018 625.99 94.9889C625.02 95.5084 624.224 96.5291 624.224 97.256C624.224 98.0946 623.699 98.5762 622.781 98.5762C621.723 98.5762 621.339 99.0577 621.339 100.38C621.339 101.823 620.978 102.183 619.535 102.183C618.213 102.183 617.731 102.567 617.731 103.626C617.731 104.739 617.25 105.069 615.627 105.069C612.582 105.069 611.239 105.756 611.239 107.311C611.239 108.521 610.663 108.676 606.189 108.676C603.079 108.676 601.139 108.974 601.139 109.45C601.139 112.491 588.032 113.87 587.098 110.927C586.647 109.504 583.96 108.676 579.792 108.676C578.17 108.676 577.144 108.232 576.655 107.318C576.255 106.57 574.801 105.747 573.424 105.489C571.833 105.19 570.756 104.503 570.471 103.601C570.222 102.822 569.537 102.183 568.947 102.183C567.488 102.183 560.981 95.6851 560.638 93.887C560.479 93.0537 559.68 92.3467 558.748 92.2132C557.381 92.0185 557.132 91.5369 557.132 89.0805C557.132 86.7845 556.831 86.0974 555.689 85.7998C554.618 85.5203 554.246 84.8151 554.246 83.071C554.246 78.885 553.372 76.0372 551.972 75.671C549.901 75.13 549.925 52.0083 551.995 51.35C553.411 50.901 554.246 48.2136 554.246 44.1033C554.246 42.3593 554.618 41.6542 555.689 41.3746C556.831 41.077 557.132 40.3899 557.132 38.0939C557.132 35.6339 557.379 35.156 558.755 34.9612C559.805 34.8115 560.461 34.1496 560.611 33.0873C560.847 31.4208 563.874 27.8768 565.06 27.8768C565.416 27.8768 566.132 27.287 566.649 26.5674C567.169 25.846 568.191 25.0326 568.924 24.7602C569.656 24.4861 570.413 23.651 570.61 22.9062C570.852 21.9827 571.867 21.4038 573.788 21.0972C575.604 20.8068 576.61 20.2621 576.61 19.5714C576.61 18.7814 577.46 18.4983 579.823 18.4983C583.505 18.4983 586.71 17.2701 586.71 15.8579C586.71 15.1148 588.377 14.8912 593.925 14.8912C600.522 14.8912 601.139 15.0084 601.139 16.2565Z" fill="#F7FBFB"/>
</svg>
